<?xml version="1.0" encoding="UTF-8"?>
<svg width="700pt" height="700pt" version="1.1" viewBox="0 0 700 700" xmlns="http://www.w3.org/2000/svg">
 <path d="m157.59 253.48c3.3438 0.66797 6.7969 0.46484 10.043-0.58203 2.0234 1.9414 4.1445 3.7773 6.3516 5.5039 2.0078 1.5508 4.2148 2.8242 6.5586 3.793-10.121 2.0195-20.625-0.39062-28.852-6.625-2.8203-2.3438-6.2812 2.1016-3.5039 4.4805 2.5859 2.2305 5.4258 4.1484 8.4609 5.7109-0.55859 1.3281-1.2227 2.6094-1.9805 3.832-1.5156 2.1445-4.1602 4.0312-5.0586 6.5078-0.16406 0.39844-0.14062 0.85156 0.070313 1.2266 0.20703 0.37891 0.57812 0.64062 1 0.71094 3.1992 0.32812 6.1875-2.4961 8.1133-4.7539l0.003906 0.003906c1.4023-1.5586 2.5664-3.3203 3.4453-5.2227 1.9062 0.60156 3.8555 1.0469 5.832 1.3242l-0.49609 0.69141v0.003906c-1.2891 1.6016-3.0117 2.8008-4.9648 3.4492-2.793 0.98828-1.7031 5.875 1.2852 5.168l1.2305-0.32812v0.003906c-0.74219 0.94531-1.582 1.8164-2.5039 2.5898-3.0508 2.3828-6.5977 4.0508-10.379 4.8789-1.543 0.41016-0.79297 2.6758 0.64453 2.5977v0.003906c8.0938-0.90234 15.145-5.918 18.66-13.262l0.58203-0.47266c1.4297-1.1836 2.6484-2.6055 3.6016-4.1992l3.0703 0.23047c-0.55859 3.1328-1.8555 6.0859-3.7852 8.6172-0.83984 1.1797 0.6875 2.9922 1.8789 1.9102 2.918-2.7773 4.8125-6.4609 5.3789-10.449l2.3516-0.078124c6.418-0.36719 12.715-1.7227 19.07-2.6133 1.8906-0.26562 3.7852-0.47656 5.6836-0.62891 1.6953 0.33594 3.3984 0.63281 5.1094 0.86719v0.003906c-3.5938 1.3594-6.9688 3.2344-10.023 5.5625-1.1914 0.91406-1.4219 2.6172-0.51562 3.8164 0.90234 1.1992 2.6055 1.4453 3.8125 0.55078 5-3.2227 10.688-5.2305 16.602-5.8672-0.71484 2.6797-1.9297 5.1992-3.5742 7.4297-2.0156 2.3008-4.6367 3.9844-7.5703 4.8516-2.9297 0.87109-6.0469 0.88672-8.9883 0.054687-2.9102-0.82812-4.3555 4.1562-1.4688 5.125 6.8867 2.3789 14.512 1.1211 20.27-3.3477 0.95703 0.74219 1.8359 1.582 2.6172 2.5078 1.3672 1.7344 2.2305 3.8086 2.5 6 0.21094 1.4492 1.5312 2.4688 2.9883 2.3086 1.457-0.15625 2.5234-1.4414 2.418-2.9023-0.16406-3.0039-0.98047-5.9414-2.3906-8.6016-0.87891-1.7109-2.0234-3.2734-3.3906-4.6289 0.82812-1.2969 1.5547-2.6602 2.1797-4.0664l1.6367-3.8164 10.551 3.6289c6.3594 1.6172 12.34 4.457 17.613 8.3672l-1.5195 1.4375v-0.003906c-2.0039 1.6406-4.3789 2.7617-6.9219 3.2617-1.4336 0.15625-2.4688 1.4453-2.3086 2.8828 0.15625 1.4336 1.4453 2.4688 2.8789 2.3086 3.6523-0.097657 7.1953-1.2656 10.191-3.3594l1.9531-1.5234c1.707 2.4961 3.1797 5.1953 4.8164 7.7266l-1.0078 0.25 0.003906 0.003906c-4.3789 1.0352-8.8711 1.4922-13.367 1.3594-3.7617 0.089844-7.4102-1.3164-10.141-3.9062-2.3594-2.6758-3.5-6.2109-3.1484-9.7578 0.25-1.7812-2.4648-2.6797-3.1094-0.89453v-0.003906c-1.6953 4.1484-1.5273 8.8242 0.46875 12.836 1.7578 3.7617 4.8828 6.7148 8.7344 8.2578-1.4219 0.35938-2.8477 0.67188-4.2852 0.90625-5.4766 0.92188-11.059 1.0195-16.562 0.29688l-0.94141-0.96875c-1.3164-1.8125-2.3633-3.8125-3.1055-5.9258-0.36328-0.81641-1.3008-1.1992-2.1328-0.87109-0.82812 0.33203-1.25 1.2539-0.95312 2.0977 0.48828 1.5977 1.0859 3.1602 1.7891 4.6758-2.5547-0.60547-5.0664-1.3867-7.5156-2.3398-4.9961-1.9297-9.6953-4.543-13.973-7.7656-0.085937-2.3906-0.45703-4.7656-1.1055-7.0703-0.92578-3.707-2.2812-7.2969-4.0391-10.691-0.89453-1.832-3.8359-0.70703-2.9727 1.1797v0.003906c1.4023 3.3242 2.207 6.875 2.375 10.48l0.03125 1.0586c-2.4688-2.5391-4.6016-5.3828-6.3438-8.4609-1.7383-3.1016-6.9609-1.2227-5.2812 2.0977h-0.003906c1.832 3.6172 3.9883 7.0664 6.4492 10.293-1.4844-0.38672-2.9531-0.86719-4.3906-1.375v-0.003906c-3.8672-1.3789-7.3789-3.6016-10.285-6.5039-1.1836-1.1602-3.1914 0.79688-2.0859 2.0508v0.003907c3.0234 3.4336 6.6055 6.3281 10.594 8.5664 3.4922 1.9883 7.3984 3.1328 11.414 3.3516 2.043 2.1016 4.2305 4.0664 6.5391 5.8711l-2.2539 1.1211c-2.2227 0.85547-4.6094 1.2148-6.9844 1.0508-4.8594-0.57031-9.2266-3.2422-11.945-7.3086-1.8789-2.6875-5.6094 0.30859-3.9922 3.0156v-0.003907c3.2383 5.3594 8.5742 9.1172 14.711 10.363-0.28516 1.2695-0.73438 2.4922-1.3438 3.6406-1.1328 1.8398-2.6641 3.3984-4.4805 4.5664-2.9258 1.957 0.32031 5.9062 3.2227 4.2656 2.5234-1.418 4.6836-3.4023 6.3164-5.7969 1.3789-1.8633 2.3516-3.9961 2.8594-6.2617 1.2031-0.10156 2.3945-0.30469 3.5625-0.61328 2.6016-0.57422 5.0312-1.75 7.0977-3.4336 1.5391 0.90625 3.1133 1.7461 4.7266 2.5117-0.91797 2.293-2.0352 4.4961-3.3477 6.5898-1.7422 2.7734-3.9492 5.2227-6.5234 7.2461-2.0273 1.4766 0.23828 4.2773 2.3047 3.0508 6.0391-3.1562 10.902-8.1719 13.871-14.301 4.7617 1.6445 9.7188 2.6641 14.742 3.0352 1.8047 0.13281 3.5977 0.18359 5.3828 0.15234h0.003906c-4.4688 3.9844-9.2422 7.6133-14.273 10.855-10.348 6.543-22.438 9.7812-34.668 9.2812-3.0078-1.2305-5.8789-2.7656-8.5781-4.5781-3.4062-2.8984-5.1211-7.3203-4.5625-11.758 0.16406-2.0156-2.8984-2.5195-3.1367-0.47656-0.50781 4.8828 0.55078 9.8047 3.0234 14.051l-3.7305-1.5273c-1.3594-0.62891-2.6875-1.332-4-2.0938l0.64062-1.3516v-0.003906c1.4609-7.2539 0.87891-14.773-1.6797-21.715l0.32422-0.35547c1.3633-2.5195 1.8594-5.4141 1.418-8.2461-0.21875-3.0117-0.96094-5.9648-2.1953-8.7227-0.63672-1.5-3.2656-1.0039-2.9023 0.71875 0.53125 2.5469 0.73828 5.1484 0.62109 7.75l-0.26953 2.2383c-1.957-3.5391-4.3672-6.8086-7.168-9.7266-1.5742-1.6367-4.4688 0.46094-2.875 2.168 8.2031 9.2344 11.555 21.805 9.043 33.895-1.5781-1.2031-3.0781-2.5039-4.4883-3.8945 0.23047-7.0195-1.832-13.926-5.875-19.668-1.2109-1.8164-3.6875 0.19922-2.6523 2.0039 1.5312 2.7656 2.5742 5.7773 3.082 8.8984l0.27734 2.625-1.8867-3c-1.582-2.832-6.3438-1.1211-4.8164 1.9141h0.003906c5.9336 11.5 16.086 20.258 28.336 24.441l-2.4297 2.2617-0.003906-0.003906c-1.2617 0.47656-2.5742 0.81641-3.9062 1.0273-2.7031 0.42969-5.4727 0.19141-8.0625-0.69141-0.69531-0.27344-1.4844 0.050782-1.7812 0.73828-0.29688 0.68359 0.003906 1.4844 0.68359 1.8008 2.7188 1.4922 5.7422 2.3516 8.8398 2.5195-2.6641 4.3398-4.2461 9.2539-4.6094 14.336-0.19922 2.4883 3.543 3.1133 3.8711 0.58984 0.73828-4.957 2.9922-9.5625 6.4531-13.184 1.6367-1.7188 3.4883-3.2188 5.5078-4.4648 1.5312-0.98047 3.3203-1.6055 4.9141-2.5 1.5703 0.25781 3.1562 0.44531 4.7539 0.57031 1.5742 0.11719 3.1562 0.17969 4.7383 0.19141l-1.5547 1.9492h-0.003906c-2.5547 3.1797-4.8516 6.5586-6.8633 10.109-3.0742 0.17188-6.0469 1.1445-8.625 2.8203-1.293 0.81641-0.074219 2.8594 1.2969 2.3086 1.6797-0.66797 3.4531-1.0625 5.2578-1.1719-1.332 2.8242-2.4297 5.7539-3.2852 8.7539-1.1367 4.4609-1.793 9.0273-1.9648 13.625-0.15234 2.1875 3.1133 2.7461 3.4102 0.51953 1.3789-7.3945 4.2539-14.426 8.4492-20.664 0.69531 0.96484 1.3203 1.9727 1.8789 3.0195 1.4883 2.9648 2.7695 6.0273 3.8438 9.168 0.35156 0.8125 1.2383 1.2539 2.0977 1.0391 0.85938-0.21484 1.4375-1.0195 1.3672-1.9023-0.28906-2.1172-0.69922-4.2188-1.2305-6.293 2.1914 1.2422 4.4688 2.3398 6.8047 3.2812 1.3789 0.56641 2.7305-1.457 1.3828-2.332-3.543-2.3086-6.8867-4.918-10.305-7.418h0.003907c-0.50391-1.5391-1.168-3.0273-1.9727-4.4336 1.4805-2.0938 3.0391-4.1367 4.6719-6.1211 1.8867-2.2891 4.4023-4.4648 6.168-6.9883 3.5898-0.51953 7.1367-1.3242 10.598-2.4102 0.17969 1.0703 0.21484 2.5508 0.26562 3.0234 0.20703 1.8555 0.32031 3.7266 0.375 5.5898l-0.75781 0.58203c-1.0391 1.1094-1.7227 2.5352-2.7812 3.6523v0.003906c-1.0391 1.0742-2.2656 1.9531-3.6172 2.5859-0.84766 0.37109-1.25 1.3438-0.90625 2.1992 0.33984 0.85938 1.2969 1.2891 2.168 0.97656 2.0273-0.55469 3.9414-1.4727 5.6445-2.7109-0.21484 2.0742-0.65234 4.1211-1.3047 6.1016-0.75 2.2031 2.5742 3.6602 3.3359 1.4414 2.1211-5.3594 3.6523-10.926 4.5742-16.613 0.55078-3.1445 0.55078-6.3633 0-9.5078 5.7578-2.7305 11.172-6.1289 16.141-10.117 0.57031 0.015625 1.125-0.19922 1.5391-0.58984 1.0352-0.94531 2.125-1.8359 3.2539-2.6641-1.2969 4.1602-3.3516 8.043-6.0586 11.457-1.5078 1.7578 1.2305 3.7891 2.7891 2.1836 3.5234-3.3477 6.4688-7.2539 8.7148-11.562 1.0312-2.1406 1.8477-4.3711 2.4414-6.668 7.8086-3.5039 16.352-5.0469 24.891-4.5 5.7109 0.38672 11.312 1.7422 16.566 4.0039-5.293 0.97266-10.297 3.1523-14.613 6.3672-4.793 4.0352-8.668 9.0508-11.355 14.715l-0.72656 1.3594 0.003906-0.003907c-1.9844 0.74609-4.0938 1.0977-6.2109 1.0352-0.3125-2.0586-1.0273-4.0312-2.1055-5.8125-1.1562-2.2461-2.8711-4.1562-4.9766-5.5547-0.59766-0.41797-1.418-0.29297-1.8633 0.28125-0.44922 0.57422-0.36719 1.3984 0.18359 1.875 1.5508 1.5312 2.8047 3.3398 3.6953 5.3281 0.36328 0.94922 0.58203 1.9453 0.65625 2.9609-0.85547-0.34766-1.668-0.78906-2.418-1.3281-2.8789-2.0625-6.2734 2.2148-3.4062 4.3555h-0.003906c3.5 2.6055 7.7227 4.0508 12.086 4.1328-2.5391 3.4102-6.25 5.7656-10.418 6.6094-6.0195 0.32422-12.016-0.97656-17.359-3.7617-3.2812-1.5586-5.4648 3.5703-2.2266 5.1602 2.1641 1.0625 4.2969 2.2148 6.4531 3.2578-0.82422 0.87109-1.7852 1.5938-2.8477 2.1406-2.4531 1.2383-5.3047 1.4336-7.9062 0.53906-0.69141-0.26562-1.4727 0.0625-1.7656 0.74219-0.29297 0.68359 0.003906 1.4766 0.67188 1.7969 2.6758 1.5039 5.8672 1.7812 8.7617 0.75781 1.4766-0.51172 2.8945-1.168 4.2383-1.9648 1.2734-0.57031 2.5078-1.2227 3.6953-1.957 2.4102 0.87891 4.957 1.3281 7.5273 1.3281l-3.1484 2.8086c-4.5625 3.7578-9.5898 6.9062-14.961 9.3672-4.2227-2.6953-9.0586-4.2852-14.059-4.625-2.2461-0.24609-3.5156 3.2305-1.1484 4 2.3867 0.76562 4.7227 1.668 7 2.707l1.3906 0.69922v-0.003907c-3.6328 1.2852-7.3477 2.3242-11.121 3.1133-1.457 0.18359-2.5 1.5-2.3398 2.9609 0.16016 1.4609 1.4609 2.5195 2.9258 2.3828 4.1797-0.29687 8.3203-1 12.367-2.0938-1.3281 2.8086-2.8906 5.5-4.6758 8.043-2.8008 3.2383-6.2266 2.3984-9.5469 0.17188-0.63281-0.76953-1.332-1.4805-2.0859-2.1289-1.8516-3.2617-4.4883-6.0078-7.668-7.9961-4.2148-2.9805-9.1172-4.8438-14.246-5.4102-0.38281-0.058594-0.77344 0.035156-1.0859 0.26562s-0.51953 0.57422-0.57812 0.95703c-0.12109 0.79688 0.42578 1.543 1.2227 1.6641 4.5273 0.71484 8.7734 2.6367 12.301 5.5625-4.2695-1.5859-9.0195-1.2305-13.004 0.97656-1.4102 0.91406-0.085937 3.1758 1.4336 2.5508 7.6172-3.1367 13.379 2.0547 18.105 7.2539v-0.003907c-1.7422-0.16797-3.4492-0.57031-5.082-1.1914-0.88281-0.30078-1.8477 0.12891-2.2188 0.98828-0.36719 0.85547-0.019532 1.8516 0.80469 2.2891 3.1836 1.5547 6.5977 2.5938 10.109 3.0781-0.88281 1.6992-1.9961 3.2773-3.3008 4.6836-1.9883 2.0547-4.3516 3.7031-6.9648 4.8594-0.73828 0.32812-1.0898 1.1836-0.78906 1.9375 0.29688 0.75 1.1406 1.1328 1.9023 0.86328 6.1992-1.6094 11.207-6.168 13.395-12.184l0.75-0.042969h-0.003906c3.0352-0.20312 6.0234-0.87109 8.8555-1.9766-0.33594 1.9414-0.57422 3.9023-0.75781 5.8789l-0.46484 0.55078c-2.6211 4.4727-7.5625 6.9453-9.7344 11.746-0.79688 1.7656 1.8047 2.8008 2.7109 1.168v0.003906c1.9961-2.7109 4.3867-5.1094 7.0898-7.1172l-0.0625 1.957c-0.058594 2.2266 3.3906 2.793 3.4727 0.52734l-0.003906 0.003906c0.52734-7.4883 2.3242-14.832 5.3086-21.719 1.4336-4.2422 3.6328-8.1797 6.4883-11.625l2.4141-1.7109 0.47656-0.46484 0.003906-0.003907c3.6758-1.8594 7.2109-3.9922 10.566-6.3828l-1.1055 3.6562c-3.1367 4.2891-6.8047 8.1602-10.918 11.523-1.2305 1.168 0.19141 3.2188 1.6289 2.1562 2.3281-1.7188 4.6406-3.5625 7.0547-5.1953h0.003906c-1.1406 2.8359-2.5508 5.5586-4.2148 8.125-2.5625 4.168-5.8164 7.875-9.6172 10.965-1.6289 1.1641 0.22266 3.6133 1.8711 2.4805 1.9531-1.3438 4.0039-2.4805 5.8359-3.9805 0.15234 1.3242 0.22656 2.6602 0.22656 3.9961-0.13672 2.8672-0.69141 5.6953-1.6484 8.3984-0.26953 0.6875 0.050782 1.4648 0.73047 1.7578 0.67578 0.29297 1.4648-0.003906 1.7773-0.67187 1.2383-2.8711 2.1797-5.8594 2.8164-8.9219 0.86328-2.8281 0.93359-5.8398 0.20312-8.707l1.9727-2.543 1.8672-2.8789c0.4375 1.6172 1.0312 3.1953 1.7656 4.7031 1.4805 6.6836 1.3125 13.633-0.48828 20.238-0.26563 0.69141 0.0625 1.4727 0.74219 1.7656 0.68359 0.29687 1.4766 0 1.7969-0.67188 2.0703-4.6094 3.0039-9.6523 2.7188-14.699 1.793 1.7305 3.8203 3.2344 5.7578 4.8242 1.5508 1.2695 3.4453-1.1602 1.9141-2.4453-2.8789-2.8203-4.8164-6.4609-5.5469-10.422-0.91016-3.5352-1.1172-7.2148-0.61328-10.832 0.28906-1.793 0.69141-3.5664 1.1953-5.3086l0.82031 1.0547h0.003906c4.5938 4.2578 7.5859 9.9648 8.4805 16.164 0.11719 0.84375 0.82812 1.4805 1.6797 1.4961 0.85156 0.019531 1.5898-0.58594 1.7383-1.4219 0.37891-2.8555 0.27344-5.7539-0.30469-8.5742-0.66406-2.7422-1.7891-5.3516-3.3242-7.7188-1.7773-2.2383-3.375-4.6094-4.7812-7.0977-0.4375-1.0273-0.73828-2.1094-0.89062-3.2188l3.2188-7.3203 0.81641-1.8203c4.5781-5.4297 9.9688-10.125 15.98-13.914 0.066407 2.4727-0.16797 4.9414-0.69141 7.3555-1.2148 4.3945-3.6484 8.3594-7.0195 11.438-1.9609 2.1406 0.79297 4.9531 3.1445 4.1992 1.5039-0.48828 2.9023-1.25 4.125-2.25l-0.12891 2.5859 0.003906 0.003907c-1.7578 1.6445-3.1914 3.6016-4.2383 5.7656-1.5547 2.75-2.6055 5.7578-3.1055 8.8789-0.23828 1.5586 2.1953 2.3516 2.7266 0.78516v-0.003906c0.84766-2.7305 2.0781-5.3281 3.6562-7.7109l0.64844-0.84766c-0.14062 3.2422 0.10547 6.4883 0.72656 9.6719 1.0117 4.4883 2.8438 8.7461 5.4023 12.566 1.2578 1.9336 3.9141 0.082032 3.3281-1.8711v-0.003906c-0.92969-3.1406-1.5742-6.3594-1.9258-9.6172l1.957 0.68359c2.8594 1.1367 5.3516 3.0312 7.2109 5.4766 1.1992 1.7148 3.6953-0.21484 2.5742-1.9492v0.003906c-1.7266-3.0234-4.0586-5.6562-6.8477-7.7383-1.625-1.168-3.4219-2.0742-5.3242-2.6797-0.14063-5.125 0.17187-10.273 0.52344-15.426h-0.003906c6.5938 2.2578 12.199 6.7344 15.859 12.664 1.0469 1.6914 3.4531-0.17578 2.4531-1.8555l-1.8086-2.6992c0.51172-0.20703 0.89844-0.63672 1.0586-1.1641 0.15625-0.52734 0.070312-1.0977-0.24219-1.5508-1.9023-2.4297-3.8711-4.7578-5.9297-7.0547v-0.003906c-1.9727-1.9805-3.75-4.1445-5.3164-6.4609-1.9531-3.957-2.2188-8.5352-0.74219-12.695 2.75-2.7812 6.7969-3.8477 10.559-2.7812 9.1523 3.0781 28.203 36.59-0.51562 75.938v-0.003906c-15.141 12.637-34.656 18.789-54.309 17.117-1.9922 0.097657-3.0703 2.0391-1.2305 2.8516 2.375 1.2734 4.957 2.1172 7.6289 2.4844l1.0391 0.058593v-0.003906c-2.9492 1.6914-6.2812 2.5898-9.6797 2.6094-6.0938-0.10156-11.902-2.5938-16.168-6.9453-1.1914-1.293-3.5898-0.23438-2.8438 1.6016 2.5547 6.3711 7.9023 11.215 14.5 13.133 7.4648 2.0664 15.465 0.75 21.871-3.6055 3.2344-2.1055 6.6484-3.9141 10.211-5.4023l2.1289-0.72266-0.26172 0.12891c-4.5977 2.5664-8.4844 6.2305-11.312 10.668-1.0508 1.5156 1.1211 3.2656 2.2773 1.7812h-0.003906c3.7188-4.0352 8.832-6.5 14.301-6.8906l1.3516-0.14844v-0.003907c-1.1641 2.0703-2.7578 3.8633-4.6758 5.2656-1.4766 1.0781 0.16797 3.0625 1.668 2.207 2.3242-1.2578 4.5508-2.6953 6.6602-4.293 1.2578-0.91797 2.3672-2.0273 3.2852-3.2852 2.3828 0.16406 4.7461 0.48438 7.082 0.96875-1.4922 1.2656-2.875 2.6094-4.1133 3.8281-2.3086 2.5781-5.0898 4.6953-8.1875 6.2383-3.5156 1.5625-7.3945 2.1289-11.211 1.6328-0.80078-0.10156-1.5586 0.39453-1.7812 1.1719-0.22656 0.77344 0.15234 1.5977 0.88672 1.9375 3.2539 1.6367 6.8867 2.3711 10.52 2.1289 3.668-0.44141 7.168-1.7812 10.191-3.9023 1.2812-0.91016 2.5-1.8984 3.6562-2.9609l-0.94531 3.9648c-0.75781 3.8516-3.0156 7.2461-6.2734 9.4414-0.78516 0.33984-1.1602 1.2422-0.84375 2.0391 0.31641 0.79688 1.2109 1.1953 2.0156 0.90234 1.9375-0.50391 3.7266-1.4688 5.2148-2.8047 1.0742-1.0742 1.9922-2.293 2.7344-3.6172 2.043 5.6406 6.2812 10.219 11.75 12.688 0.70703 0.28516 1.5195 0.066407 1.9922-0.53516 0.47266-0.60156 0.49219-1.4414 0.046875-2.0625-3.5117-3.8477-5.5352-8.8203-5.707-14.027 0.45313-4.7695 3.4844-8.9102 7.8984-10.777l0.75781-0.42578c-1.4492 3.1367-2.0273 6.6016-1.6758 10.035 0.35156 3.4336 1.6211 6.7109 3.6719 9.4883 1.2656 1.8789 2.75 3.6016 4.418 5.1367 0.92188 0.87891 1.9023 1.6875 2.9414 2.4258 1.1289 0.625 2.2188 1.3203 3.2617 2.0859 1.457 1.3633 3.2773-1.0547 1.8945-2.4219-0.77734-1.0469-1.4492-2.1641-2.0156-3.3398l-1.8008-2.9531v-0.003907c-0.98438-1.7305-1.7812-3.5625-2.3711-5.4688-0.90234-2.8047-0.95703-5.8164-0.15625-8.6562l2.6133 3.2266h0.003907c1.4414 1.6562 2.7227 3.4453 3.8242 5.3438 1.2891 2.0625 2.2852 4.2891 2.9688 6.6211 0.11719 0.8125 0.80078 1.418 1.6172 1.4336 0.82031 0.019532 1.5273-0.55859 1.6797-1.3633 1.4062-4.0352 1.3906-8.4258-0.046874-12.449-0.83594-2.2695-2.0273-4.3906-3.5234-6.2891 3.418 1.2148 6.2227 3.7266 7.8047 6.9922 1.6914 4.2305 3.75 8.3047 6.1523 12.176 1.3438 1.8867 3.0508 3.4883 5.0195 4.7031 1.9609 1.043 4.168 1.5234 6.3828 1.3906 1.4414 0.078125 2.8203-1.9609 1.2617-2.9258l0.003906 0.003906c-1.4961-1.2656-2.707-2.8281-3.5586-4.5938-1.0234-1.7891-1.8945-3.6602-2.6055-5.5938-1.4414-4.5117-3.3047-8.8789-5.5703-13.043l-0.46094-0.70312 0.30078 0.23828 3.1562 2.5312c1.2422 0.99219 2.6992 1.7344 3.9062 2.7383 0.57422 0.42188 1.3555 0.42188 1.9258-0.003906 0.57031-0.42578 0.79297-1.1758 0.54688-1.8438-0.39062-1.5469-0.89062-3.0625-1.4922-4.543l-1.0586-1.9102 1.4766-0.47266c1.2656 2.4883 2.3281 5.0703 3.1758 7.7266 1.2148 3.8164 1.3203 7.9023 0.30078 11.773-0.10938 0.92969 0.46875 1.8008 1.3672 2.0547 0.89453 0.25781 1.8477-0.17187 2.2461-1.0156 1.7461-4.707 2.6562-9.6836 2.6953-14.703l0.074219 0.17188c3.2305 8.0508 2.4922 17.148-1.9883 24.574-0.52734 0.71875-0.38672 1.7266 0.3125 2.2734 0.70312 0.54688 1.7109 0.44141 2.2812-0.24219 3.3281-3.1719 5.8125-7.1172 7.2344-11.488 1.4844-4.5312 1.9609-9.3281 1.3984-14.059-0.39453-2.6328-1.1523-5.1953-2.2539-7.6172l0.33203-2.168 0.019531-0.085937 1.0664-2.1289 1.418 0.59766h-0.003906c0.44531 1.793 0.57812 3.6445 0.39453 5.4766-0.80469 4.9883-0.47656 10.094 0.95312 14.941 1.707 4.4922 4.8281 8.3047 8.8906 10.871 0.65625 0.48047 1.5586 0.41406 2.1367-0.15625 0.57812-0.56641 0.66016-1.4727 0.19141-2.1328-2.6875-4.1328-4.1992-8.918-4.375-13.848 0.17578-3.9023 0.57422-7.7891 1.1914-11.648 0.51562 0.61719 0.90625 1.3281 1.1523 2.0898 0.98438 3.0547 0.18359 6.4297 0.89062 9.5508 0.70312 2.6055 2.2344 4.9102 4.3672 6.5664 1.5508 1.3867 3.5352-1.1602 1.9922-2.543-2.1523-1.9258-0.36328-7.3906-0.03125-9.8242l0.16406-1.6289c3.5508 6.6758 4.4805 14.441 2.6055 21.77-0.44141 1.6484 2.0469 2.5859 2.9805 1.2852 5.0625-7.3906 6.3047-16.75 3.3438-25.203 1.1914 0.86719 2.293 1.8516 3.2891 2.9336 1.6602 1.832 3.9219 4.3047 3.6797 6.918-0.10547 0.86719 0.49609 1.6641 1.3594 1.7969 0.86719 0.12891 1.6797-0.44922 1.8359-1.3125 0.76953-3.0312 0.8125-6.1992 0.12891-9.25-1.1328-3.3047-3.0703-6.2773-5.6406-8.6445l-2.0625-1.793h-0.003907c5.1211-0.60938 10.055 2.1328 12.238 6.8047 1.2109 3.2812 1.2852 6.875 0.20703 10.203-0.59766 1.832-1.5469 3.5312-2.793 5.0039-1.0156 1.3789-2.1602 2.6602-3.4102 3.8281-1.7344 0.94922-0.74219 3.793 1.168 2.9453l1.2109-0.33594 0.78516-0.066406c3.5156-1.0625 6.6719-3.0742 9.125-5.8125 2.4492-2.7344 4.0977-6.0938 4.7695-9.707 0.99609-4.6523 0.054688-9.5117-2.6133-13.449l1.5 0.69141v-0.003906c3.4844 3.582 6.0586 7.9492 7.5039 12.734 0.41406 1.6406 3.1914 0.94141 2.8984-0.71875v-0.003907c-0.4375-2.8789-1.1484-5.7109-2.125-8.457 2.0156 0.77344 4.082 1.4219 6.1797 1.9336 3.7578 0.84766 7.6367 0.96094 11.438 0.33594 1.8125-0.33203 3.5664-0.92969 5.207-1.7695 1.4727-0.95312 2.8867-1.9922 4.2383-3.1094 1.7656-1.0938-0.19141-3.668-1.9492-2.5742h0.003906c-1.6172 0.62109-3.3438 0.89844-5.0742 0.81641-1.8125 0.03125-3.6211-0.089844-5.4141-0.36328-2.9141-0.5625-5.7422-1.5078-8.4102-2.8164l1.1328-0.28125h0.003906c2.75-0.91406 5.3555-2.2305 7.7266-3.8984 1.4805-0.92188 0.039063-3.5508-1.5234-2.7109-5.5273 2.2227-11.676 2.3633-17.297 0.39062-6.0898-1.2891-11.992-3.332-17.574-6.082-9.5547-6.7695-16.332-16.77-19.086-28.148-2.7539-11.379-1.2969-23.371 4.1055-33.758 5.4453-3.5664 12.633-2.8594 17.277 1.6953 0.98438 0.71484 1.8633 1.5586 2.6211 2.5039-2.4453 2.9883-4.3555 6.3789-5.6484 10.02-0.61328 1.457 1.5273 2.8711 2.4648 1.4609v0.003907c1.3359-1.875 2.9141-3.5625 4.6914-5.0234l1.3828-1.1016h0.003906c1.9336 4.6445 0.62891 10.008-3.2266 13.242-0.6875 0.55469-0.8125 1.5547-0.28125 2.2578 0.53125 0.70703 1.5273 0.85938 2.25 0.34766 4.293-2.9844 7.1172-7.6523 7.7617-12.844 0.20703-2.0273 0.019531-4.0742-0.5625-6.0273l2.1406 2.6406 0.64453 0.85156 2.2812 3.4023v-0.003906c2.6367 7.3945 2.0195 15.562-1.7031 22.477-1.0312 1.6562 1.2617 3.5742 2.4453 1.9141 2.3594-3.3008 4.0586-7.0195 5.0078-10.961 0.91797 3.0781 1.7109 6.207 2.5742 9.3477l0.003906-0.003906c-2.2578 2.1992-3.6602 5.1289-3.9492 8.2656-0.65234 3.4336-0.44531 6.9727 0.60156 10.305 0.45312 1.5273 2.8008 0.84766 2.6602-0.66016-0.30859-2.9805 0.058594-5.9922 1.0781-8.8086 0.44922-1.0664 1.0156-2.082 1.6875-3.0234 0.55078 1.2656 1.2109 2.4805 1.9727 3.6289 1.9766 2.6992 4.5117 4.9414 7.4336 6.5703 1.7617 1.125 3.7891-1.4727 2.0117-2.5703-2.7969-2.2227-4.7852-5.3008-5.668-8.7656-1.2227-3.4609-2.2305-6.9961-3.0195-10.578-0.79297-3.3516-1.7812-6.6562-2.9609-9.8906l2.043 2.3203c2.8125 2.9258 5.9766 5.4844 9.4258 7.6172 0.035156 0.84766 0.125 1.6914 0.27734 2.5234 0.16016 1.4336 0.20703 2.875 0.40234 4.3047 0.40234 2.5859 1.2109 5.0938 2.3906 7.4297 0.1875 0.41797 0.54297 0.74219 0.98047 0.88672 0.43359 0.14844 0.91406 0.10156 1.3164-0.12109 0.40234-0.22266 0.69141-0.60547 0.79688-1.0547s0.015625-0.92188-0.24609-1.3008c-0.72266-1.2656-1.168-2.668-1.3086-4.1172-0.4375-1.9648-0.75-3.9531-0.9375-5.9531l0.019531-0.44922h0.003906c2.5117 1.3398 5.1172 2.4961 7.7969 3.457 1.2383 1.8477 2.3594 3.7734 3.3594 5.7617 1.4453 2.9727 2.1836 6.2422 2.1602 9.5469-0.125 2.1211 3.1641 2.6367 3.2852 0.5v0.003907c0.29688-3.1992 0.15234-6.4258-0.42969-9.5859l1.1953 0.34766c2.0273 0.72656 3.9336 1.75 5.6562 3.0391 3.4688 2.7422 6.5312 5.957 9.1055 9.5469 1.207 1.5664 3.3828-0.1875 2.4062-1.8164-1.2773-2.1289-2.5469-4.3008-3.9609-6.3555l-0.003906 0.003906c1.8359-1.7852 4.0508-3.1328 6.4805-3.9414 1.9297-0.46094 1.7031-3.5156-0.34375-3.1523h-0.003906c-3.2773 0.33594-6.4414 1.4102-9.2461 3.1445l-1.9727-1.9258c-0.93359-0.8125-1.9102-1.5703-2.9297-2.2734 1.6445 0.042969 3.293-0.007813 4.9336-0.16016 2.3594-0.21875 2.5586-4.1055 0.089844-4.25-3.875-0.21484-7.7227-0.77344-11.496-1.6719 1.1094-0.99609 2.2773-1.9258 3.4961-2.7852 1.7344-1.1367-0.19531-3.6172-1.9297-2.5547-2.2305 1.3711-4.8828 2.1914-7.0234 3.7109-2.8281-1-5.5508-2.2734-8.1328-3.8086 1.875-1.0781 3.3828-2.6953 4.332-4.6406 0.64453-1.4219-1.457-2.7344-2.3828-1.4141-2.1094 3.0078-5.2578 1.5586-8.2188 1.2422l-0.36328-0.011719c-2.3281-1.9844-4.4648-4.1797-6.3906-6.5547-1.5859-1.9648-3.0078-4.0547-4.4492-6.1289v0.003906c3.0742-0.23438 6.168-0.054687 9.1953 0.52734 0.83203 0.11719 1.6211-0.39453 1.8516-1.1992 0.23047-0.80469-0.16797-1.6602-0.93359-2-3.7227-1.5703-7.6484-2.6289-11.66-3.1328l-3.0547-0.21484-0.89062-0.98438 0.003906-0.003906c-2.8125-2.9297-6.0977-5.3711-9.7148-7.2148 7-1.2656 13.859-3.1953 20.492-5.7617l2.2266 0.65625c1.8633 2.4609 3.4883 5.0938 4.8594 7.8594 0.29688 0.75 1.1445 1.1133 1.8945 0.81641 0.75-0.29688 1.1172-1.1445 0.82031-1.8945-0.39062-1.4961-0.86328-2.9688-1.4141-4.4141l2.9102 1.3906 3.625 1.9141c-0.09375 3.1445-0.41797 6.2773-0.96484 9.375-0.85547 3.6914-2.625 7.1094-5.1406 9.9414-1.3945 1.5781 1.1211 3.457 2.543 1.9922l0.003906-0.003906c2.2305-2.2969 4.1289-4.8945 5.6484-7.7148 1.0977 4.5078 2.7109 8.875 4.8086 13.012 0.34766 0.80078 1.2695 1.1797 2.0781 0.85547 0.8125-0.32031 1.2188-1.2266 0.92578-2.0469-1.3281-4.7227-2.2383-9.5508-2.7109-14.434-0.27344-2.4219-0.49609-4.8398-0.55078-7.2812 3.0586 1.7109 6.1484 3.3828 9.3086 4.832 0.80078 1.7266 1.2969 3.5781 1.4648 5.4727 0.078126 2.582 0.30859 5.1602 0.69531 7.7148 0.35938 1.9414 3.3789 2.2539 3.6328 0.074219v0.003906c0.36719-3.2617 0.40625-6.5469 0.10937-9.8125l-0.12891-1.1484 0.62891 0.21875 0.41797 1.0078c1.6016 2 3.3867 3.8438 5.332 5.5156l0.53125 0.52344v0.019531l-0.29297 0.34375c-2.4297 4.1367-3.9453 8.7461-4.4375 13.52-0.09375 0.82812 0.48828 1.582 1.3086 1.707 0.82422 0.125 1.6016-0.42188 1.7617-1.2383 0.68359-2.7773 1.6328-5.4844 2.832-8.082l0.89453 2.9336c1.0547 3.6094 2.9375 6.9219 5.4961 9.6758 1.4648 1.5312 4.0312-0.23438 2.7031-2.043-0.66797-0.91797-1.2734-1.8828-1.8047-2.8867l0.67188 0.24219c3.8516 0.90625 7.8594 0.89453 11.707-0.035156 0.85938-0.11719 1.4688-0.89844 1.375-1.7617-0.097656-0.85938-0.85938-1.4922-1.7227-1.418-2.668 0.58984-5.4492 0.43359-8.0352-0.45703-2.582-0.89062-4.8711-2.4766-6.6094-4.5859l-0.38281-0.43359-0.26172-1.5234 0.94141 0.54297c4.8281 2.7383 10.441 3.7695 15.93 2.9258 0.80859-0.125 1.4141-0.80859 1.4375-1.625 0.023438-0.82031-0.53906-1.5391-1.3398-1.707-5.3164-1.0117-10.324-3.2578-14.617-6.5547-0.97266-0.82812-1.875-1.7266-2.7031-2.6953 0.85938 0.003906 1.7305-0.019531 2.6055-0.085938v-0.003906c2.7578-0.21484 5.4727-0.78906 8.082-1.7031 1.5547 1.4883 3.5312 2.4609 5.6562 2.7852l1.5977 0.19531c0.29297 1.3164 0.90234 2.5391 1.7734 3.5625 0.51953 0.625 1.1211 1.1719 1.793 1.6289 0.78516 0.44922 1.6094 0.82422 2.4648 1.1211 1.6797 0.78516 3.3594-1.8711 1.6992-2.8633h-0.003906c-0.92578-0.72656-1.6914-1.6406-2.2461-2.6797l-0.58984-1.1211c1.8633-0.30078 3.7266-0.68359 5.6172-0.80078 0.85547-0.0625 1.5195-0.76953 1.5312-1.625 0.015625-0.85547-0.625-1.582-1.4727-1.6719-3.1445-0.375-6.4531-0.11328-9.543-0.76562l-1.8008-0.72266c3.2891-1.9023 6.3594-4.1602 9.1602-6.7305 1.8711-1.6953 0.21484-5.6914-2.3828-4.2383-6.0547 4-12.766 6.8945-19.832 8.5508l1.0781-2.6719 0.003906 0.003906c0.67969-1.6953 1.4766-3.3438 2.3828-4.9297 1.418-1.5469 2.918-3.0195 4.4922-4.4102 5.1758-2.3828 10.988-3.0078 16.551-1.7852 0.87109 0.10156 1.668-0.50391 1.8008-1.375 0.13281-0.86719-0.44531-1.6836-1.3086-1.8477-3.8633-0.73438-7.7773-1.1758-11.707-1.3203-2.0469 0.074219-4.0742 0.45703-6.0078 1.1328 2.2734-4.0039 3.5039-8.5156 3.582-13.117-0.011719-1.5195-2.4766-1.543-2.6484-0.054688v-0.003906c-1.0898 5.6484-3.5977 10.93-7.2969 15.336l-2.6797 3.9609-0.12891-2.5078c0-1.7031-2.8359-1.7539-2.9883-0.0625-0.33203 2.5-0.5 5.0195-0.5 7.5391-1.1875 1.3359-2.3086 2.7305-3.3477 4.1875l-1.0273 1.457v-0.003906c-4.0469-1.0078-7.9609-2.5-11.652-4.4453l-3.8594-2.0156c3.2891-0.12109 6.5586-0.51953 9.7812-1.1992 1.7773-0.35156 2.1836-3.3828 0.074219-3.4492h-0.003906c-4.9805-0.29688-9.9336-0.91797-14.832-1.8711-2.4023-0.41406-4.7852-0.94922-7.1367-1.6094-1.8008-0.49609-3.5469-1.1836-5.3555-1.625l1.8984-1.0625c4.9648-3.1719 9.7227-6.6523 14.254-10.414 0.59375 1.6328 1.3867 3.1914 2.3516 4.6406 2.4492 3.2695 5.9062 5.6406 9.8398 6.7461 1.7734 0.60547 2.9375-1.9492 1.168-2.7109-2.9453-1.4609-5.3125-3.8828-6.707-6.8633-0.67187-1.2422-1.1797-2.5625-1.5117-3.9336 7.1953-0.51562 14.422 0.25391 21.344 2.2734 2.2305 0.57422 3.1016-2.9102 1.0859-3.793v0.003907c-4.6914-2.1367-9.6562-3.6133-14.754-4.3984l4.7578-2.3125c5.1289-2.3789 10.426-4.6133 15.555-7.1328v-0.003907c1.4688 0.83594 2.8242 1.8633 4.0312 3.0508l1.7109 1.5938c1.5742 4.5586 3.7188 8.9023 6.3867 12.922 1.8867 2.8203 4.5312 5.0508 7.6328 6.4297 3.0977 1.3828 6.5273 1.8594 9.8867 1.375 0.90625-0.14062 1.5391-0.96484 1.4414-1.875-0.10156-0.91016-0.89844-1.582-1.8125-1.5234-2.9883 0.027343-5.9023-0.91406-8.3164-2.6758 2.4453-0.15625 4.8086-0.91406 6.8906-2.1992 1.7383-1.168-0.20703-3.6758-1.9492-2.5742l0.003906-0.003906c-1.6602 1.1055-3.75 1.3438-5.6172 0.64062-1.6523-0.53516-2.8711-1.7383-4.4609-2.3008l-0.53125-1.2188-0.28906-0.76953c2.6797 0.89062 5.5898 0.80859 8.2188-0.22266 3.3438-1.2305 2.0781-7.0742-1.5508-6.2422-3.5078 0.23828-6.9258-1.1953-9.2148-3.8633-1.7266-1.4961-3.3984-3.0586-5.2305-4.4062 2.082-1.2266 4.0977-2.5586 6.0391-4h0.074219c3.1797 2.4688 6.8945 4.1484 10.848 4.9102 1.5469 1.8438 3.3047 3.5039 5.2344 4.9492 2.5195 1.9648 5.25 3.6406 8.1445 5 1.5742 0.82812 3.1211-1.7227 1.6055-2.7031h-0.003906c-2.375-1.6602-4.6289-3.4805-6.75-5.457l-1.25-1.2266c3.2617-0.25 6.4375-1.1562 9.3398-2.6602 1.6445-0.82812 1.2539-3.7383-0.83984-3.375l0.003906-0.003906c-3.1523 0.5-6.3672 0.44531-9.5-0.16797 2.3867-1.3281 4.4297-3.1914 5.9766-5.4414 0.50391-0.64062 0.38672-1.5703-0.25391-2.0742-0.64453-0.5-1.5742-0.38672-2.0742 0.25781-2.8242 2.8906-6.6289 4.6211-10.664 4.8438l-1.6953-1.0078-1.7461-1.3438 0.71875-1.0469c1.6406-1.8828 3.1016-3.918 4.3672-6.0742l0.84766-0.18359c2.8828-1.3828 5.4883-3.2773 7.6914-5.5898 3.8672 0.54688 7.7617-0.78125 10.492-3.5742 1.4102-1.5781-1.1094-3.4258-2.543-1.9922h-0.003906c-1.2305 0.80469-2.7344 1.0742-4.168 0.75 2.4375-3.9023 4.2539-8.1562 5.3867-12.613 0.48437-1.8203-2.6367-2.7305-3.1953-0.91406-2.2539 6.4453-6.1016 12.215-11.188 16.77 1.8672-5.5234 2.0703-11.477 0.58203-17.113-0.51953-1.8906-3.4883-1.0469-3.2852 0.81641 0.54297 5.6094-0.67578 11.25-3.4883 16.133-1.5352 2.5273-3.3945 4.8398-5.5312 6.8789 0.23438-3.9531-0.24219-8.0547-0.24219-12.016-0.007812-0.85547-0.6875-1.5547-1.543-1.5859-0.85547-0.035156-1.5859 0.61328-1.6562 1.4688-0.078124 3.3359-0.52734 6.6562-1.3398 9.8945-0.75 2.1992-1.7422 4.3086-2.9609 6.2891-2.5742 1.9648-5.1406 4.0312-7.8867 5.7344l-0.027343-0.34375c-0.12109-1.5508-0.12109-3.1094 0-4.6602 0.14453-3.4258 1.1562-6.7578 2.9492-9.6836 1.0977-1.7227-1.3359-3.7188-2.543-1.9922h-0.003907c-2.9883 3.9375-5.0703 8.4883-6.0977 13.328-0.27344 1.6094-0.33594 3.2461-0.18359 4.8711-5.543 0.78906-10.898 2.5781-15.801 5.2812l-1.9336 1.1797 1.3203-2.7109c1.25-2.7734 2.1914-5.6758 2.8008-8.6523l1.1641-0.27734c2.7695-0.71484 5.3125-2.1172 7.3867-4.082 0.65625-0.54297 0.76953-1.5039 0.25781-2.1797-0.51172-0.67969-1.4648-0.83203-2.1641-0.35156-1.625 0.96484-3.4219 1.5938-5.293 1.8477 3.0898-5.9102 7.3164-11.156 12.434-15.434 0.6875-0.5625 0.80859-1.5625 0.27344-2.2734-0.53516-0.70703-1.5312-0.86328-2.2578-0.35547-4.2422 2.625-8.0703 5.8594-11.367 9.6016l-0.039063 0.050782c-0.97656-8.4336-5.0625-16.199-11.465-21.773-1.2422-1.0078-3.4531 0.43359-2.6406 1.9766v-0.003907c4.7305 7.8789 6.8477 17.047 6.0508 26.199-0.32812 2.457-0.89844 4.8711-1.6953 7.2148l-0.78516 1.7266v0.003906c-0.52344-5.6406-2.9336-10.938-6.8438-15.035-1.5312-1.4375-3.5195 1.1328-2.0117 2.5703l0.003906-0.003906c1.6289 1.9531 2.6133 4.3633 2.8125 6.8984 0.42578 2.6406 0.82031 5.3281 1.082 7.9883 0.25391 2.2695 0.17578 4.5664-0.23438 6.8125-0.73438 1.0742-1.3945 2.1953-1.9766 3.3594l-0.60156 0.83594c-3.8359 5.0977-8.6445 9.3789-14.148 12.602l-0.085938-1.3672v0.003906c0.023438-1.668 0.23047-3.3281 0.61328-4.9531 0.69531-3.5977 2.1328-7.0117 4.2188-10.027 1.4297-1.7969-1.2031-3.6875-2.7422-2.1445-1.6055 1.3945-3.1016 2.9141-4.4688 4.543-1.2852 1.8164-2.332 3.793-3.1211 5.875-1.7344 3.5312-2.4141 7.4883-1.9492 11.395-10.328 2.1719-20.816 3.4961-31.359 3.9688l5.418-3.0234-0.003906-0.003907c7.4375-3.625 14.172-8.5469 19.883-14.531 1.6758-1.9258 3.1719-4 4.4688-6.1953 5.125-3.5977 10.75-6.418 16.699-8.3711 0.89844-0.38281 1.4375-1.3086 1.3281-2.2812-0.10938-0.96875-0.84766-1.75-1.8086-1.9219-3.4258-0.19141-6.8555 0.37109-10.043 1.6484 2.2852-4.3828 5.7266-8.1172 8.2773-12.359 3.2852-5.7852 6.0742-11.84 8.3398-18.094 0.51953-1.3594-0.125-2.8867-1.4609-3.4648-1.3359-0.57422-2.8906 0.003906-3.5273 1.3125-2.4727 6.4414-5.5391 12.641-9.1523 18.516l-1.7578 2.4414c0.28516-6.9453-0.15625-13.898-1.3086-20.75-0.22656-1.5195-1.6133-2.5898-3.1406-2.4219-1.5312 0.16797-2.6523 1.5117-2.543 3.043 0.68359 5.4219 0.77344 10.898 0.27344 16.336-3.25-2.4492-5.5273-5.9727-6.4258-9.9414-0.42969-1.9727-3.5391-1.707-3.1797 0.34766 1.0703 6.2539 4.0898 12.012 8.625 16.453v0.007812c-1.207 7.5547-5.0742 14.426-10.91 19.375-1.3867 1.1289-2.8242 2.1836-4.2891 3.1875l-0.47266 0.10938-2.0156 0.40625 0.054687-0.10547c4.7969-10.188 6.0664-21.68 3.6016-32.668-0.77344-3.5977-6.4531-3.082-5.7773 0.63281 0.625 3.4492 0.76953 6.9648 0.42578 10.453l-2.6719-2.7656v0.003906c-2.0273-2.1523-3.4141-4.8242-4.0078-7.7227-0.10547-0.70703-0.75391-1.207-1.4688-1.1289s-1.2383 0.70312-1.1875 1.4219c0.65625 4.3086 2.457 8.3633 5.2148 11.738 1.3125 2.0625 2.1211 4.4062 2.3516 6.8398-1.0898 3.3008-2.6172 6.4453-4.5391 9.3398-1.2188 1.8164-2.5703 3.543-4.043 5.1602-1-1.1875-1.9219-2.4336-2.7656-3.7344 1.2188-2.3281 1.9102-4.8945 2.0156-7.5234 0.28516-2.8477 0.3125-5.7188 0.078125-8.5742-0.13672-2.0742-3.2422-1.6875-3.1797 0.34766 0.054688 2.5703-0.17578 5.1328-0.6875 7.6523l-0.80078 2.9258h0.003906c-1.4922-3.875-2.1406-8.0234-1.8984-12.172 0.10156-0.90234-0.53125-1.7227-1.4297-1.8594-0.89844-0.13672-1.7422 0.45703-1.918 1.3516-2.1758 8.5898-0.98047 17.688 3.3516 25.422-3.7539 1.5-7.2891 3.5039-10.5 5.957-4.5938 3.4727-9.0469 7.168-13.453 10.887l1.5547-5.8555c2.5938-9.3242 5.4766-18.594 7.9531-27.961h-0.003907c2.1562-4.418 3.6289-9.1406 4.3672-14 1.1758-2.3711 2.5-4.6719 3.9609-6.8789 5.6016-4.3789 11.922-7.7461 18.676-9.957 2.6836 1.0547 5.5156 1.6719 8.3945 1.8242 2.0625 0.50781 2.5391-2.7539 0.49609-3.2539l-1.6406-0.71094v-0.003906c3.9766-1.0664 7.6094-3.1406 10.551-6.0273 3.5625-4.1445 6.2539-8.9609 7.918-14.164 0.5625-1.4258-0.10938-3.043-1.5156-3.6523-1.4102-0.60547-3.0469 0.007813-3.7031 1.3945-1.8828 4.7852-4.6445 9.1758-8.1406 12.945-4.7852 3.1289-10.141 5.2812-15.758 6.3359l-0.085938 0.03125 0.20313-0.19922 0.003906 0.003906c3.9336-3.7344 6.7344-8.5 8.0898-13.75 0.73047-3.0391-3.8086-4.0586-5.0664-1.457v0.003906c-2.6562 4.5391-6.4219 8.3359-10.945 11.023-2.918 2.082-5.9375 4.0664-8.7852 6.25l0.26172-1.6367v0.003906c1.6875-8.5469 6.3594-16.215 13.184-21.637l3.0586-2.3672 2.3789 0.36328v0.003906c2.25 0.59375 4.4688 1.3008 6.6484 2.1172 2.0625 0.83594 4.3359 0.99219 6.4961 0.44922 1.6797-0.39844 2.1445-3.1484 0.070313-3.3281-1.3555-0.11328-2.8672-1.5977-4-2.2734-1.0938-0.65234-2.1797-1.3125-3.3281-1.8633l-0.40234-0.1875 3.1484-0.62891c4.9688-0.95312 9.9219-1.8828 14.875-2.7422 2.125 1.1211 4.1719 2.3828 6.1367 3.7656 4.1211 6.2305 5.9219 13.711 5.0898 21.137-0.0625 0.41016 0.039062 0.82812 0.28516 1.1641 0.25 0.33594 0.61719 0.55859 1.0312 0.62109 0.85547 0.13281 1.6562-0.45703 1.7852-1.3125 1.2656-5.0234 1.2656-10.285 0-15.305l-0.11328-0.37891 0.003907-0.003906c3.375 2.6055 7.0312 4.8281 10.898 6.6289 4.1484 1.7734 8.5781 2.8086 13.082 3.0508 0.50391 1.3711 1.2578 2.6367 2.2148 3.7344 1.0898 2.6094 2.5547 5.1055 3.5664 7.7383v0.003906c0.70703 3.1445 2.0352 6.1172 3.9062 8.7422 1.4453 1.4961 4.0898-0.36328 2.6523-2.0039h0.003906c-1.6445-2.5898-2.75-5.4844-3.25-8.5117 1.1133 0.70312 2.2656 1.3438 3.4336 1.9453l0.12891 0.125c1.0312 0.80859 2.25 1.3398 3.543 1.5508 6.5664 2.4297 13.613 3.2734 20.566 2.4609 1.793-0.16797 1.9492-3.1445 0.066407-3.2344v0.003906c-1.7148-0.085938-3.4297-0.27734-5.1211-0.57422 5.1484-1.3633 10.086-3.4375 14.672-6.1562 1.582-0.93359 0.042969-3.7109-1.6016-2.8438-4.8438 2.5977-10.172 4.168-15.652 4.6133-2.582 0.12109-5.168 0.089844-7.7461-0.089843l-4.3359-0.39062c-2.7578-1.2852-5.3555-2.8984-7.7266-4.8086-0.89453-0.75-1.7148-1.582-2.4531-2.4844 2.2656-0.25 4.5078-0.69141 6.6992-1.3203 3.3281 0.86719 6.6445 1.8125 10.02 2.5117 4 0.875 8.1523 0.78906 12.109-0.25391 2.0469-0.51172 0.8125-3.5664-1.2148-3.0586v-0.003906c-4.2773 0.41406-8.5859-0.40625-12.414-2.3672l-0.5-0.17969c1.8047-1.0195 3.5078-2.1992 5.0938-3.5273 1.4922-1.1289 1.7891-3.2539 0.66016-4.7461-1.1289-1.4922-3.2539-1.7891-4.7461-0.66016-4.1484 2.9961-8.9023 5.0508-13.93 6.0156 1.5586-2.0156 3.0078-4.1133 4.3438-6.2812 1-1.5938-1.2383-3.4414-2.3516-1.8398v0.003906c-1.5078 2.25-3.2227 4.3555-5.1211 6.2852-0.87891 0.84766-1.8047 1.6484-2.7617 2.4023-1.1992 0.007812-2.3984-0.046875-3.5938-0.16797-0.0625-0.55469-0.082031-1.1172-0.0625-1.6758 0.039063-2.6133 0.70703-5.1836 1.9375-7.4883 0.90234-1.5625-1.7266-3.1367-2.7305-1.6211h0.003906c-1.8516 2.5234-3.2266 5.3594-4.0625 8.375l-0.28125 1.4414c-2.5938-0.70703-5.0977-1.7148-7.457-3.0039-5.0391-2.7461-9.6328-6.457-14.434-9.6719v0.003906c9.5312-1.4609 19.145-2.2852 28.785-2.4648 5.1836-0.058594 10.375-0.058594 15.551 0.19141 4.082 0.19531 8.2109 0.91016 12.312 1.1016l0.003907 0.003906c4.1953 2.3711 7.4531 6.1055 9.2344 10.586 0.53125 1.9258 3.4141 0.76172 2.8867-1.1445h0.003907c-0.60547-2.8516-1.5078-5.6289-2.6914-8.2891l2.8008 1.0859c3.2188 3.4766 5.9062 7.4102 7.9766 11.668l2.1289 3.6367c-0.62109 4.8789 0.20313 9.832 2.3633 14.25 0.33984 0.76953 1.2305 1.1328 2.0156 0.82422 0.78125-0.3125 1.1797-1.1875 0.89844-1.9844-0.74219-2.3438-1.1719-4.7773-1.2734-7.2344 2.3672 2.7422 5.0156 5.2305 7.9023 7.418 1.5781 1.3242 3.5508-1.1953 1.9727-2.5195-3.0117-2.9258-5.5898-6.2695-7.6562-9.9297-2.0977-3.2812-4.0391-6.6484-5.9375-10.051l-0.64844-1.1602 3.4062 2.1523h-0.003906c2.8945 1.6523 5.4414 3.8477 7.5078 6.4609 1.1484 1.7539 3.75-0.21094 2.6016-1.9648-1.4258-2.1758-2.4883-4.4961-3.8672-6.668l1.793-1.9258v-0.003907c0.88672-1.0625 1.9297-1.9883 3.0977-2.7383 1.9727-0.86719 0.74219-3.9883-1.2383-3.1172-0.76562 0.26562-1.5469 0.48438-2.3398 0.66016-0.88281 0.30078-1.7266 0.71094-2.5117 1.2188l-2.1992 1.6211v0.003906c-1.6797-1.7773-3.5391-3.3711-5.5508-4.7617-1.1211-0.77344-2.2812-1.4844-3.4648-2.1523v0.003906c0.8125-1.9844 1.8828-3.8555 3.1875-5.5586l0.94922-1.1016h-0.003907c0.68359 0.46875 1.4219 0.85156 2.1992 1.1328 2.1758 0.64453 4.4805 0.71484 6.6914 0.20312 0.84766-0.125 1.4453-0.89453 1.3477-1.7461-0.09375-0.85156-0.84766-1.4727-1.6992-1.4062-1.7773 0.03125-3.5-0.61719-4.8164-1.8164 1.543-1.5625 2.9961-3.207 4.3594-4.9258 1-1.2109-0.43359-3.3984-1.9414-2.5938h0.003906c-4.4219 2.1094-8.4102 5.0273-11.762 8.6016-1.6406 1.9766-3 4.168-4.043 6.5117-2.7266-1.1328-5.5234-2.082-8.3711-2.8477l2.4336-1.457v0.003906c3.2734-2.4648 6.168-5.4023 8.5859-8.7109 1.3125-1.6133-1.2305-3.6055-2.543-1.9922-4.7539 4.9297-10.734 8.5039-17.328 10.348-7.1875-0.91797-14.461-0.95312-21.656-0.11328 5.7656-1.918 11.293-4.4805 16.484-7.6406 1.3359 0.30859 2.6875 0.54688 4.0469 0.71484 2.3867 0.33594 4.8789-0.14062 7.2148 0.25391 2.0977 0.35156 2.4453-2.6719 0.48438-3.1953h0.003906c-1.3281-0.53516-2.625-1.1523-3.8789-1.8438l-0.56641-0.21484c1.75-0.99609 3.4609-2.0625 5.1016-3.1992 3.2344-3.0781 7.3359-5.082 11.75-5.7461 3.8828 0.41797 7.7852-0.58203 10.988-2.8164 0.66016-0.54688 0.77344-1.5156 0.25781-2.1992s-1.4805-0.83984-2.1875-0.35547c-3.1719 2.2461-8.1094 0.96094-11.82 1.3438 1.9883-2.7539 3.7227-5.6836 5.1875-8.75 1.0078-1.9805-2.1641-3.3398-3.1641-1.3672h-0.003906c-2.4453 4.1055-5.7969 7.5977-9.8008 10.207-1.0156 0.69922-2.082 1.3125-3.1953 1.8398 1.207-2.8203 1.9414-5.8164 2.1758-8.875 2.7852-3.3047 5.0586-7.0117 6.7461-10.992 0.79688-1.4688-1.6523-2.957-2.543-1.5078v-0.003906c-1.0898 1.7461-2.375 3.3633-3.832 4.8164 0.039062-2.9844 0.019531-5.9648 0.29297-8.9414h-0.003907c0.15625-4.0625 0.84766-8.0859 2.0547-11.969 0.69531-1.8242-2.0469-3.0234-2.8008-1.207-1.3711 3.3477-3.1836 6.4023-4.2695 9.8828l0.003906 0.003906c-1.0898 3.5664-1.8789 7.2188-2.3555 10.918l-0.73047 6.0391c-0.85156 2.8945-1.8242 5.7617-2.7734 8.6172-1.0586 4.4727-3.2539 8.5977-6.375 11.973-1.9336 1.5664-4.1758 2.7188-6.5742 3.3828 1.5469-2.1016 2.9023-4.3398 4.043-6.6875 1.3125-2.707 2.3242-5.5508 3.0078-8.4805 1.7656-2.9297 3.0117-6.1406 3.6836-9.4922 1.0508-3.5078 1.7305-7.1172 2.0273-10.766 0.47656-7.0781-0.86328-14.164-3.8945-20.582-0.85938-1.9023-3.8945-0.71484-3.0312 1.2031l-0.003906 0.003906c2.7578 6.2695 3.4219 13.258 1.8945 19.934l-0.79297 2.4648c-0.59766-2.2773-1.4375-4.4844-2.5117-6.5781-1.8867-3.6836-7.7422-1.5469-6.0898 2.418 3.2344 8.8438 2.3984 18.66-2.2812 26.828l-0.39844 0.70312c-2.8555-6.4336-5.2266-13.066-7.1016-19.848-0.29688-2.1172-3.6016-1.7578-3.3047 0.36328v-0.003907c0.39844 3.2344 0.99609 6.4414 1.7852 9.6016 0.88281 3.2891 1.9805 6.5312 2.6484 9.875 0.47656 2.3125 0.69922 4.6719 0.66797 7.0312-3.3789 3.3906-7.2852 6.207-11.57 8.3398 0.67188-1.9375 1.1797-3.9297 1.5195-5.9531 1.2539-7.3359 1.2852-14.82 2.4219-22.176 1.0703-6.668 2.7109-13.23 4.8984-19.613l0.35156-0.97656c1.9531-0.45703 3.8281-1.1953 5.5703-2.1875 2.5508-1.6211 4.7539-3.7383 6.4727-6.2227 1.1094-1.3672-0.86719-3.5234-2.2227-2.2617-1.9062 1.5898-4.1016 2.793-6.4688 3.543l-0.34766-0.43359c1.4766-2.4414 2.8281-4.9531 4.0547-7.5352v0.003907c5.7383-3.9336 12.512-6.0859 19.465-6.1875 2.7773-0.097657 2.5742-4.125 0.097656-4.6523-5.5391-1.1172-11.293-0.17188-16.184 2.6602 0.79297-2.2461 1.4922-4.5234 2.0938-6.832 2.668-0.96484 5.1094-2.4688 7.168-4.4219 1.4062-1.2812-0.24609-3.6055-1.8164-2.4062-1.3672 1.0273-2.8359 1.9141-4.3789 2.6523l0.48438-2.5234c0.59375-3.4102-4.5938-4.1523-5.2812-0.80469-0.38672 1.8828-0.83594 3.7461-1.3438 5.5859h-0.003906c-0.69141 0.48047-0.95312 1.375-0.62891 2.1523-0.73047 2.3867-1.5625 4.7305-2.4961 7.0352l-0.53516-0.54688c-1.332-1.3047-2.1641-3.0312-2.3633-4.8828-0.16797-1.9102-2.9102-1.5195-2.9023 0.31641-0.082031 2.3359 0.34766 4.6641 1.2539 6.8203 0.53906 1.2422 1.3438 2.3477 2.3516 3.25-2.7383 5.6875-6.1172 11.051-10.062 15.984-0.1875-4.4883-0.11328-8.9805 0.22266-13.457 0.39062-9.8711 3.6406-19.418 9.3594-27.473 0.96484-1.3086 0.71484-3.1445-0.5625-4.1445-1.2812-1-3.125-0.80469-4.1602 0.44922l-2.2852 3.0781-1.3047-2.3906c-0.67578-1.5586-1.0781-3.2227-1.1836-4.9141-0.15234-1.9336-3.0234-1.5664-2.9648 0.32422v-0.003906c-0.10156 3.7383 1.0781 7.3984 3.3477 10.371-0.88672 1.582-1.6836 3.2109-2.3945 4.8789-0.92578-1.1328-1.7461-2.3516-2.4453-3.6406-1.043-2.1445-1.7148-4.4492-1.9805-6.8203-0.11328-0.76953-0.81641-1.3125-1.5859-1.2266-0.77344 0.085938-1.3438 0.76562-1.2852 1.5391 0.13672 5.2383 2.2148 10.234 5.8281 14.023-0.70312 2.1016-1.293 4.2422-1.7695 6.4062-0.94922-1.2539-2.0625-2.3711-3.3086-3.3242l-0.33594-0.24219v-0.003906c-0.94922-0.98047-2.0938-1.75-3.3633-2.25l-0.41797-0.26172-0.87891-0.84375 0.003907-0.003906c-3.4492-3.3633-6.4609-7.1484-8.9609-11.266 2.3555-2.1953 4.207-4.8711 5.4258-7.8477 4.8984-3.1797 10.434-5.2422 16.219-6.0508 1.0117-0.13672 1.7266-1.0547 1.6172-2.0664-0.11328-1.0156-1.0117-1.7539-2.0273-1.6719-5.0547 0.20312-9.9375 1.8828-14.047 4.8359 0.95703-3.9609 1.207-8.0586 0.73438-12.105-0.125-0.88281-0.92578-1.5039-1.8086-1.4062-0.88281 0.097656-1.5312 0.87891-1.4648 1.7656 0.11719 4.2734-0.73828 8.5195-2.5078 12.41-1.2773 2.6758-2.8711 5.1875-4.7539 7.4766-1.2656-2.3633-2.2656-4.8633-2.9766-7.4492 0.47656-0.082031 0.89062-0.37891 1.125-0.80078 1.6602-3.5508 2.5078-7.4258 2.4766-11.344 0.18359-3.7227-0.22656-7.4531-1.2109-11.047-0.40234-1.4805-2.7266-0.82031-2.5703 0.63672 0.43359 3.5781 0.52734 7.1875 0.27734 10.785-0.26953 2.2812-0.67187 4.5469-1.2148 6.7812-0.80469-4.1133-2.0195-8.1328-3.6328-12.004-0.30859-0.69141-1.1094-1.0195-1.8164-0.73828-0.70703 0.27734-1.0625 1.0664-0.8125 1.7812 1.5273 5.793 2.1445 11.785 1.8281 17.77l0.023437 0.32031c-1.6758-1-3.1406-2.3164-4.3125-3.8711-1.8594-2.5742-2.9648-5.6133-3.1875-8.7812 0.17188-7.6367 0.91016-15.25 2.207-22.781 0.10156-1.6875-2.5586-2.8086-3.1094-0.89453h-0.003907c-2.9062 8.6562-3.9336 17.836-3.0039 26.922 0.32422 2.0273 0.87109 4.0156 1.6289 5.9258l-1.8008-2.0547h0.003907c-4.6875-5.8438-6.2969-13.578-4.3281-20.809 0.61719-1.9102-2.2578-3.168-2.8789-1.2383-1.4492 3.918-1.9922 8.1133-1.5938 12.27 0.48828 3.9141 1.8828 7.6562 4.0703 10.934l0.10547 0.14844c-1.4102 0.24609-2.8477 0.28516-4.2695 0.11719-2.5195-0.33984-4.8984-1.3555-6.8906-2.9375-1.457-1.1719-3 0.97656-1.7422 2.2266 1.9805 2.1094 4.5078 3.625 7.3008 4.3828 2.793 0.75781 5.7383 0.73047 8.5156-0.089844 4.4453 4.5664 9.5742 8.4062 15.203 11.387l0.25 0.11719c0.55078 1.4805 1.2188 2.9141 2 4.2852 1.5547 2.7109 3.3438 5.2812 5.3477 7.6797-2.8125 1.1094-5.8203 1.6289-8.8398 1.5312-1.4336-0.13672-2.8477-0.4375-4.2188-0.88672-0.0625-3.0742-1.0039-6.0625-2.7148-8.6133-0.89453-1.4766-3.3906-0.066406-2.6562 1.4922v0.003907c0.69922 1.4492 1.0625 3.043 1.0664 4.6523l-0.011719 0.48438c-4.5508-2.6953-7.9688-6.9453-9.6328-11.965-1.0469-3.3281-5.832-1.2773-4.9648 1.9727v-0.003907c0.78125 2.9023 2.1055 5.6289 3.9062 8.0352l-1.3984 1.0195c-1.3438 0.76953-2.7734 1.3789-4.2617 1.8125-3.1562 0.89844-6.5156 0.79297-9.6055-0.3125-0.83203-0.31641-1.7656 0.078125-2.1172 0.89453-0.35547 0.81641 0 1.7656 0.79688 2.1562 3.8516 2.2188 8.2812 3.2188 12.711 2.8672 3.2148-0.26172 6.2891-1.4297 8.8594-3.3711 2.6094 1.9961 5.5586 3.4961 8.707 4.4258 3.5352 1.0664 7.2539 1.4062 10.922 1.0039-1.5859 4.9414-4.5625 9.3203-8.5703 12.617-1.6875 1.3906 0.32812 4.1055 2.0586 2.7266 5.2539-4.1445 9.0938-9.8203 10.988-16.238 1.3125-0.36719 2.6406-0.65625 3.9883-0.86719 1.5234 1.6328 3.207 3.1094 5.0234 4.4102 1.2734 0.83203 2.6289 1.5195 4.0508 2.0547l0.36328 0.88281c0.85156 2.7773 1.4219 5.6367 1.6992 8.5273-1.3867-1.0156-2.5312-2.332-3.3438-3.8477-0.33984-0.76172-1.2188-1.1211-1.9922-0.8125-0.77734 0.30859-1.1719 1.1719-0.89453 1.957 0.72656 2.2305 1.9609 4.2617 3.6016 5.9375 0.98047 0.92578 2.0898 1.7109 3.293 2.3242-0.007812 2.1133 0.011719 4.2148 0.066407 6.3086 0.13281 5.5547 0.63672 12 0.53906 18.434l-0.039062-0.0625v-0.003906c-2.5938-3.3008-4.6875-6.9609-6.2188-10.871-0.37891-1.5078-2.9258-0.86328-2.6602 0.66016 0.45312 3.4258 1.2812 6.793 2.4727 10.039 1.5078 3.1953 2.6406 6.5547 3.3789 10.012 0.40625 2.5391 0.51953 5.1211 0.33594 7.6914-1.8828 5.3828-5.668 9.8984-10.645 12.688-1.9648 1.082-4.0273 1.9688-6.1602 2.6523 0.72656-0.75391 1.3945-1.5664 1.9961-2.4219 1.1094-1.5977 1.7109-3.4297 2.6797-5.0938 1.0547-1.8125-1.9492-3.0859-2.9961-1.293h0.003907c-1.918 2.543-4.3008 4.6992-7.0156 6.3633-1.9102 1.3672-3.9297 2.5781-6.0352 3.6172l-5.7578 0.18359v0.003907c3.207-1.6836 5.9141-4.1836 7.8398-7.2539 1.5234-2.4375 2.6875-5.0859 3.4531-7.8594 3.3867 0.12891 6.7266-0.77344 9.5898-2.5898 2.8594-1.8125 5.1016-4.4531 6.4258-7.5664 0.53906-1.3594-0.097657-2.9023-1.4414-3.4805-1.3398-0.58203-2.9023 0.011718-3.5195 1.3359-1.8438 3.6797-5.5195 6.082-9.625 6.3008 0.32031-6.6992 5.957-12.359 9.1953-17.84h-0.003906c4.2539-7.3281 5.4883-16.023 3.4375-24.242-0.78516-3.1797-5.8516-2.8203-5.2188 0.57031 1.3984 8.2773-0.76953 16.762-5.9648 23.355l-2.0469 2.8906-0.53125-4.0586c-0.59766-4.3164-0.94141-8.6602-1.4492-12.992-0.21875-1.5156-1.6016-2.5898-3.125-2.4219-1.5234 0.16797-2.6406 1.5117-2.5273 3.043 0.35547 7.9844 0.8125 15.953 1.0312 23.945 0.71484 6.8008-0.99219 13.641-4.8164 19.312-1.9062 2.2891-4.3828 4.0391-7.1758 5.0781 1.875-3.9297 3.4414-8 4.6836-12.176 0.34375-0.79688-0.023437-1.7188-0.82031-2.0625-0.79297-0.34375-1.7188 0.023438-2.0625 0.82031-1.8125 3.7656-4.1719 7.2461-7.0039 10.324l-1.1797 1.2617c1.7227-4.4883 3.1914-9.0703 4.3984-13.727 1.5781-5.8672 2.6289-11.863 3.1367-17.918 0.27344-3.2344 0.36328-6.4805 0.26953-9.7227-0.058593-1.4336-0.25391-2.8633-0.57812-4.2617l-0.56641-1.6953 0.17188-0.59766c1.8789-1.4883 3.2188-3.5469 3.8203-5.8672 0.80859-4.2227 0.55078-8.582-0.75-12.684-0.37891-1.8789-3.332-1.5977-2.9961 0.32812 0.72656 3.2266 0.74609 6.5742 0.066406 9.8086-0.21875 0.85156-0.57812 1.6641-1.0586 2.4023-0.82422-4.5586-2.2734-8.9766-4.3125-13.137-0.28516-0.69922-1.0156-1.1094-1.7578-0.99219l-1.0742-2.7656c-0.63672-1.7578-3.2695-0.6875-2.6875 1.0664 1.1875 4.4727 1.9102 9.0547 2.1562 13.676 0.35156 3.1211 0.53906 6.2578 0.56641 9.3984l-0.85156-0.55859c-1.582-1.0898-3.0938-2.2891-4.6094-3.4727h0.003906c-0.66016-0.49219-1.5781-0.42578-2.1641 0.14844-0.58594 0.57422-0.66797 1.4922-0.1875 2.1602 1.3398 1.7617 2.8477 3.3867 4.5 4.8555 0.99219 0.96875 2.0391 1.8789 3.1367 2.7266-0.28516 5.293-1.0078 10.555-2.1602 15.73l-0.17188-0.019532h0.003906c0.21484-4.5273-1.1094-8.9922-3.7578-12.672-2.1758-2.9727-6.6602 0.42969-4.5625 3.4453 4.1523 5.9727 0.95312 13.91-1.4375 20.625l-1.8945-1.6719h0.003906c-2.332-2.2461-4.4883-4.668-6.4531-7.2422-1.0352-1.3594-1.9727-2.7656-2.8711-4.207l-1.293-5.2266c3.9727-4.5273 7.4648-9.4531 10.418-14.703 2.4023-5.5312 3.2461-11.609 2.4375-17.586-0.21875-1.4961-1.582-2.5547-3.0898-2.3906-1.5039 0.16406-2.6094 1.4922-2.5 3.0039 0.63281 5.3984-0.35547 10.863-2.8438 15.695-1.6523 2.7539-3.6445 5.2891-5.9297 7.543-0.29688-2.2383-0.51172-4.4961-0.62891-6.7695v0.003907c-0.44531-7.9492 0.30859-15.922 2.2344-23.645l1.3086-1.1602c2.4883-2.6133 4.5977-5.5586 6.2773-8.75 1.1211-1.8398-1.5352-3.9531-2.668-2.0859h0.003907c-0.98828 1.582-2.2344 2.9922-3.6836 4.1641l-0.24609-0.17578c0.61328-1.6602 1.2891-3.3047 2.0312-4.9297l2.0586-4.2812-0.003906 0.003906c1.8203-0.29688 3.6172-0.73047 5.375-1.2969 1.2266 1.5742 2.9727 2.6523 4.9297 3.043 0.67188 0.082031 1.3008-0.33203 1.4883-0.98438 0.1875-0.64844-0.12891-1.3359-0.74219-1.6211-0.69141-0.23438-1.2734-0.71094-1.6406-1.3438l-0.21484-0.53125c2.168-1.1133 4.207-2.457 6.0859-4.0039 1.6211-1.2617-0.30078-3.8242-1.9297-2.5547-2.0977 1.5195-4.5508 2.4844-7.1211 2.8008-0.97266 0.15625-1.9609 0.17188-2.9336 0.046875 2.5703-4.7617 4.7812-9.707 6.6211-14.797 1.168-3.4492 1.9844-7.0078 2.4414-10.621 1.5195-0.98437 2.8203-2.2734 3.8203-3.7812 1.2148-2.2031 1.8711-4.668 1.9102-7.1836 0.097657-0.73047-0.40625-1.4023-1.1367-1.5156-0.73047-0.10938-1.4102 0.38281-1.5352 1.1094-0.5 1.8945-1.3867 3.668-2.6016 5.2031 0.078125-5.9062-0.49219-11.801-1.7031-17.582-0.09375-0.86328-0.86719-1.4844-1.7305-1.3906-0.85938 0.089843-1.4844 0.86328-1.3906 1.7266-0.011718 4.7539-0.10156 9.5195-0.58203 14.223-1.0078-1.207-1.918-2.4961-2.7188-3.8516-2.3008-4.1367-3.293-8.8711-2.8555-13.582 0.10938-0.73828-0.39844-1.4258-1.1367-1.5391-0.73828-0.11328-1.4258 0.39453-1.5391 1.1328-1.0391 5.0273-0.47266 10.254 1.6172 14.941l0.65625 1.4453-1.3594 0.47266c-1.2383 0.27734-2.5234 0.26562-3.7539-0.039063-1.8477-0.55859-3.0898 2.0312-1.2188 2.8242v-0.003906c2.6445 1.2734 5.6641 1.5352 8.4922 0.73828l0.36328 0.62109c0.67578 1.2812 1.4922 2.4883 2.4336 3.5898-0.69141 3.4922-1.7617 6.9023-3.1914 10.16-1.0078 2.2578-2.1289 4.4609-3.3125 6.6289l-0.35156-0.37891c-1.0938-1.2695-2.0938-2.6172-2.9883-4.0312-1.9883-3.0664-3.3359-6.5-3.9648-10.098-0.13281-0.84375-0.90625-1.4375-1.7578-1.3438-0.85156 0.09375-1.4805 0.83984-1.4219 1.6953 0.29688 4.1523 1.3984 8.2109 3.2461 11.941 1.2188 2.4844 2.7812 4.7852 4.6406 6.832-1.9258 3.332-3.9023 6.6445-5.7227 10.031v0.003906c-5.4922-4.3086-9.5977-10.133-11.809-16.754-0.37891-1.4805-2.9492-0.85156-2.6289 0.65234v0.003906c0.58984 3.4336 1.4258 6.8242 2.5 10.141l-1.707-0.44922h0.003906c-1.8203-0.59766-3.4102-1.7461-4.5508-3.2852-1.0469-1.6289-3.3398-0.074218-2.8164 1.5859 0.67969 2.4258 2.3164 4.4688 4.5352 5.6562 2.2578 1.2852 4.7852 2.0234 7.3789 2.1562 1.625 2.5703 3.5938 4.9062 5.8477 6.9492-1.2969 3.0234-2.3867 6.1289-3.2617 9.2969l-1.4648-1.2305c-1.3203-1.5312-2.4531-3.2109-3.3828-5.0039-0.88672-1.6797-3.6445-0.66406-2.8008 1.1133 1.0742 2.3047 2.4219 4.4727 4.0156 6.4531l1.5664 2.1836 0.89453 1.1992 0.003906 0.003907c-2.1797 10.902-2.5508 22.09-1.0977 33.117l-2.3711-1.9102c-3.5938-3.4336-6.6562-7.3828-9.082-11.719-0.71484-1.2461-2.7852-0.058594-2.1992 1.2383 1.7227 3.8203 3.0547 7.75 4.9883 11.449l-0.003906-0.003907c-1.9922 0.16797-3.9883-0.25-5.75-1.1914-1.5508-0.875-3.1523 1.7773-1.6055 2.7031 3.0273 2.1289 6.6484 3.25 10.348 3.1992 1.082 1.4141 2.2773 2.7422 3.5742 3.9648 1.1406 1.1797 2.4336 2.207 3.8438 3.0508l0.33594 1.7188c0.99609 5.1328 2.3086 10.191 3.793 15.211 1 4.2109 2.2539 8.3594 3.7539 12.422l0.53516 4.043-2.2969-1.0547h0.003906c-3.3672-1.8242-6.3359-4.3008-8.7305-7.2891-0.55078-0.6875-1.5508-0.8125-2.2578-0.28125-0.70312 0.53125-0.85547 1.5273-0.34375 2.25 2.207 4.0742 5.0703 7.7617 8.4688 10.914 1.6758 1.4141 3.5586 2.5586 5.5859 3.3906 0 2.668-0.16016 5.3359-0.47266 7.9844l-0.12891 0.96484c-1.3008 2.668-2.6133 5.3281-3.7148 8.0625v0.003907c-1.0078 2.5469-1.8477 5.1562-2.5195 7.8125-1.7969-1.7695-3.293-3.8164-4.4336-6.0625l0.98438-1.2227c1.3086-2.9492 2.4023-6 3.5664-9.0117 0.53516-1.3828-0.11328-2.9375-1.4727-3.5234-1.3594-0.58984-2.9414 0.007813-3.5742 1.3438l-2.0977 5.0391h-0.003906c-0.82422-3.8594-0.83594-7.8477-0.03125-11.715 0.76562-3.6641-4.8984-4.4648-5.7109-0.86719h-0.003906c-0.45312 2.0234-0.71484 4.0859-0.77734 6.1602l-0.61328-1.1641h0.003906c-1.3086-2.8281-2.1094-5.8633-2.3672-8.9688-0.11328-1.7734-3.1289-1.8984-3.1719-0.066406-0.21484 3.6016 0.37109 7.207 1.7188 10.551 1.0625 2.9531 2.8242 5.6016 5.1367 7.7227 0.59766 2.9102 1.5664 5.7266 2.8789 8.3906 2.0352 4.3555 4.7578 8.3516 8.0664 11.84-0.64062 3.0938-1.2734 6.1914-2.0547 9.2461v0.003906c-2.1602 7.9336-5.0078 15.664-8.5117 23.102l-0.89453 1.9414h-0.003906c-0.011718-4.8008-0.55859-9.582-1.6367-14.262-3.1992-12.34-8.1758-24.148-14.777-35.055 1.9883-2.6484 3.4844-5.6328 4.4141-8.8125 1.7539-5.6914 2.207-11.707 1.3281-17.598l-0.20703-1.2578v-0.003906c4.7812-2.4297 8.8008-6.1289 11.625-10.688 2.8242-4.5586 4.3438-9.8047 4.3906-15.168-0.25-3.4141-5.1992-2.7148-5.1875 0.56641 0.011719 2.7812-0.76172 5.5117-2.2227 7.8789-0.73047-0.66797-1.3438-1.4531-1.8164-2.3203-1.3516-2.9141-1.918-6.125-1.6484-9.3242 0.054687-1.9688-2.9922-2.4727-3.0703-0.46875v0.003907c-0.55859 4.0586-0.33594 8.1875 0.65234 12.168 0.54688 1.5547 1.3672 3 2.4297 4.2656-2.1055 2.0273-4.3516 3.8945-6.7305 5.5859-3.5312-9.8867-4.0938-20.59-1.6094-30.793 1.2305-3.3242-3.8008-5.5312-5.0742-2.1914v0.003906c-0.94922 2.5078-1.6289 5.1133-2.0273 7.7656l-1.0742-1.5508v0.003906c-1.4258-2.8555-2.0273-6.0508-1.7344-9.2305 0.11719-0.86328-0.48047-1.6602-1.3438-1.793-0.86328-0.13281-1.6719 0.45313-1.8203 1.3125-0.9375 3.6523-0.74219 7.5 0.55859 11.039 0.80469 2.082 2.4336 6.2578 4.8555 7.5117-0.019532 2.6328 0.12109 5.2695 0.33594 7.918h0.003907c-1.2461-0.63672-2.4062-1.4219-3.457-2.3398-2.457-2.2305-4.1953-5.1406-4.9844-8.3633-0.46094-1.8359-3.6523-1.0547-3.2578 0.80859h0.003906c1.1992 6.9453 5.7891 12.832 12.234 15.688 0.33594 3.3398 0.66016 6.6953 0.80469 10.066h-0.003907c0.22266 5.0586-0.24609 10.129-1.3945 15.062-2.6445-3.9102-5.6016-7.5938-8.8477-11.02-4.1016-8.2148-6.9688-16.992-8.5-26.043v-0.042969c0.12109-1.5 0.33984-2.9883 0.65234-4.4609 1.5-6.1641 3.875-12.086 7.043-17.582l2.2305-3.9492c3.8086-2.8867 7.4531-5.9844 10.918-9.2734l1.3672 0.097656c0.59375 2.6914 1.8438 5.1914 3.6367 7.2812 1.1953 1.5273 3.3047-0.17969 2.3516-1.7812h0.003907c-0.75781-1.3086-1.2344-2.7617-1.3945-4.2656l-0.11328-1.457h0.003906c1.4961-0.19922 2.9766-0.51172 4.4219-0.9375 2.0273-0.58984 3.957-1.4688 5.7305-2.6172 1.875-1.3672 3.4414-3.1172 4.5938-5.1367 0.52344-0.70703 0.38672-1.707-0.30859-2.25-0.69531-0.54688-1.6992-0.4375-2.2617 0.24219-1.6289 1.4141-3.582 2.4023-5.6836 2.875-1.8555 0.37109-3.7773 0.13672-5.4883-0.67188l-0.15625-0.050781 0.29297-0.49219c4.5703-3.168 8.6484-6.9883 12.109-11.336 2.1406-2.6875-1.9414-5.832-4.1836-3.2734-1.0078 1.1484-2.0547 2.2578-3.1445 3.3203h-0.003907c1.4844-5.1523 2.2266-10.488 2.2148-15.848-0.007813-3.332-5.7461-3.4805-5.8828-0.125-0.48437 10.219-4.3984 19.973-11.109 27.688l-0.11328-0.085937v0.003906c5.0469-8.0977 6.5977-17.895 4.293-27.152 1.2344-3.1523 3.1758-5.9805 5.6758-8.2695 3.8789-3.6094 7.2031-7.7734 9.8672-12.355 1.4102-0.12109 2.8008-0.42578 4.1289-0.91406 2.3594-0.66016 4.625-1.6094 6.75-2.8242 1.4219-0.82031 0.070312-3.1211-1.4023-2.4961-2.043 0.96484-4.2734 1.457-6.5352 1.4414l-0.50391-0.035157 0.87891-1.6797 0.22266-0.47656 1.25-1.2891 2.6797-1.7305c2.4492-1.668 4.6875-3.6289 6.6602-5.8398 3.9102-4.4258 6.6016-9.7891 7.8125-15.566 0.42578-1.8633-2.3945-2.2031-2.8867-0.4375-1.5352 5.1094-4.2383 9.793-7.8945 13.684-1.0664 1.1484-2.2188 2.2148-3.4492 3.1875 0.6875-3.1602 0.91406-6.5508 1.7344-9.6289l1.4102-4.8164 0.49219-0.33594v0.003906c1.4219-0.88281 2.7852-1.8516 4.0898-2.8984 2.4805-2.1094 4.6172-4.5898 6.332-7.3516 1.0078-1.6055-1.1328-3.4062-2.3711-1.8633h0.003907c-1.918 2.3984-4.125 4.5508-6.5742 6.4023l-0.046875 0.03125c0.8125-2.5664 0.88672-5.3086 0.21094-7.9141-0.42578-1.5586-2.7734-0.83203-2.6641 0.66016 0.14844 3.0703-0.56641 6.125-2.0664 8.8164l-0.95312 1.6289-1.4844 0.98438-0.48828-0.96094c-0.52734-3.5586-1.6523-7.0039-3.3281-10.191-0.32422-0.71875-1.1562-1.0586-1.8906-0.76953-0.73438 0.29297-1.1094 1.1094-0.85156 1.8555 2.3594 6.2617 3.4102 12.945 3.0859 19.629l-0.26172 2.3516v0.003906c-2.5547-1.6719-4.7109-3.8906-6.3125-6.4922-2.168-3.5312-3.1055-7.6836-2.6641-11.805 0.12109-0.79688-0.42578-1.543-1.2266-1.6641-0.79687-0.12109-1.5391 0.42578-1.6641 1.2227-0.60156 3.3203-0.52734 6.7266 0.22656 10.012-4.6172-2.207-7.9531-6.4219-9.0391-11.422-0.39844-1.5586-2.5938-0.74219-2.5781 0.63672 0.21094 3.5938 1.582 7.0195 3.9141 9.7578 2.3281 2.7422 5.4883 4.6484 9 5.4336l0.33594 0.042969c1.8477 3.8711 4.8281 7.0938 8.5469 9.2305-0.58984 1.6367-1.2812 3.2344-2.0625 4.7891l-0.14062 0.097657-0.21875 0.19141c-0.82812-0.3125-1.6016-0.76172-2.2852-1.3281-1.5898-1.3281-3.0391-2.8203-4.3203-4.4492-1.0977-1.375-2.9805 0.15625-2.1289 1.6094 1.5547 3.1406 3.8555 5.8555 6.7031 7.8984-2.0195 2.9375-4.4844 5.5391-7.3086 7.7109 0.35547-3.0117 0.5625-6.043 0.61328-9.0781 0.070313-2.0586-2.957-2.6484-3.2578-0.49609-0.45703 4.8789-1.5273 9.6758-3.1875 14.285l-0.24609 0.4375-0.24219 0.66406c-0.65234 1.4219-1.4492 2.7734-2.3828 4.0312l-0.51562 0.24609-0.90625 0.046875c-0.85938-2.4375-1.793-4.8359-2.7266-7.1836-1.1992-2.9492-2.1445-5.9961-2.8242-9.1055 4.9531-1.6797 8.0195-8.1289 9.4883-12.641 0.58984-1.8047-2.1172-3.0078-2.7383-1.1797-0.83203 2.4922-2.3086 4.7188-4.2734 6.4609-1 0.83984-2.0508 1.6211-3.1484 2.3359-0.23438-3.3672 0.32812-6.7422 1.6367-9.8555 0.29688-0.75391-0.0625-1.6094-0.80469-1.9297-0.74609-0.32031-1.6133 0.003907-1.9609 0.73438-3 6.8438-3.9883 14.398-2.8516 21.781 0.39062 3.457 1 6.8867 1.8203 10.266-3.2109-2.2852-5.9531-5.1602-8.082-8.4766-0.86328-1.4336-3.2969-0.0625-2.5742 1.4492h-0.003907c1.7461 4.0195 4.0938 7.75 6.9648 11.062-1.5703 0.61328-2.9453 1.6406-3.9805 2.9688-1.0391 1.1797 0.64844 2.707 1.8555 1.8906 1.6875-0.96484 3.6094-1.4414 5.5508-1.375l2.2734 1.7266 0.53125 3.3945c0.98828 6.4258-0.14844 13-3.2344 18.723-1.1562 2.1172-2.5664 4.0859-4.2031 5.8594 0.64844-2.6133 1.5352-5.1602 2.6445-7.6133 1.5781-3.375-3.7305-5.6602-5.3047-2.2891-1.6953 3.6289-3.7109 7.0898-5.2773 10.789v-0.003907c-1.5117 3.6367-2.7578 7.3711-3.7305 11.188l-1.0273 4.4297c-1.9414-1.3828-3.5469-3.1797-4.7031-5.2656 0.17578-1.0664-0.32422-2.1367-1.2539-2.6875-1.1211-2.9883-1.6914-6.1562-1.6797-9.3477 1.5781-0.57031 3.1055-1.5 4.6641-2.2148v0.003906c2.6562-1.1719 4.918-3.0938 6.4961-5.5312 1.0547-1.6367-1.2578-3.5312-2.4219-1.8945-1.6211 2.1328-4.0508 3.5039-6.7109 3.7891-0.47656 0.035157-0.95703 0.007813-1.4258-0.078125 0.73047-2.6367 1.5664-5.2344 2.3242-7.8594h-0.003906c6.9883-5.2383 11.48-13.148 12.391-21.832 0.11719-1.0391-0.60547-1.9844-1.6406-2.1406-1.0312-0.15625-2.0039 0.53125-2.1992 1.5547-0.98828 4.8594-3.2656 9.3594-6.5859 13.039l0.35938-4.2656c0.69922-3.7969 1.7305-7.5273 3.0859-11.145 1.6797-4.0977 4.4062-7.6445 5.9922-11.805v-0.003906c0.74609-1.9492 1.3281-3.9609 1.7344-6.0078 0.30078-2.3125 0.44141-4.6445 0.42969-6.9766 0.12891-2.043-3.0352-2.5352-3.1641-0.48047-0.51172 4.457-1.8672 8.7734-4 12.719-1.3672 2.3867-2.8633 4.6992-4.4805 6.9219l-0.22266-3.6328c-0.11328-1.9375-3.3438-2.0547-3.4492-0.074219h-0.003907c-0.24609 9.668-1.5898 19.281-3.9961 28.648-1.6445-1.0938-2.9102-2.6719-3.6133-4.5195-0.63672-1.9609-3.6055-0.77344-2.9727 1.1797 0.48828 2.0391 1.1367 4.0391 1.9453 5.9727 0.67188 1.3242 1.5039 2.5625 2.4844 3.6797-1.4258 3.5078-2.543 7.1328-3.3398 10.836-0.67969-1.2148-1.4414-2.3789-2.2891-3.4883l-1.9453-2.457-1.1797-2.7891c-1.6719-4.3125-2.6484-8.8633-2.9062-13.48l0.15625-1.8945c1.8086-0.51562 3.5039-1.375 4.9883-2.5273 3.0469-2.2734 5.4219-5.3242 6.8789-8.8359 0.29297-0.74219 0.003906-1.582-0.67969-1.9883-0.6875-0.40625-1.5625-0.25781-2.0742 0.35156-1.9727 2.3555-4.6367 4.0273-7.6172 4.7734l-0.19922 0.050782 0.88672-1.7188v-0.003906c1.457-2.3633 3.1719-4.5547 5.1172-6.5312 3.2305-3.4492 6.0781-7.2383 8.4883-11.305 4.168-2.8477 7.5977-6.6484 10.008-11.09 2.3008-2.8789 5.168-5.2578 8.4258-6.9844 2.0664-0.58984 4.2344-0.70703 6.3516-0.34375 2.1875 0.10938 4.3789 0.050781 6.5547-0.17578 0.76562-0.11328 1.3398-0.76562 1.3555-1.5391 0.015624-0.77344-0.52734-1.4492-1.2891-1.5938-2.3633-0.53516-4.7617-0.90234-7.1758-1.0938l1.5508-1.3711c3.4062-2.9375 4.7305-7.625 3.3594-11.906-0.62109-1.7227-3.0586-0.66016-2.5938 1.0352 1.9023 6.9297-5.8711 10.465-11.824 13.16v-0.003906c1.5742-5.4297 2.0547-11.117 1.4219-16.734-0.097656-0.89453-0.90625-1.543-1.8008-1.4453-0.89844 0.097657-1.5469 0.90234-1.4492 1.8008 0.16016 6.8477-1.2578 13.645-4.1484 19.855-1.332 2.8984-2.9844 5.6406-4.9258 8.1758 2.2734-9.7109 1.8594-19.859-1.207-29.348-0.22656-0.72266-0.96875-1.1445-1.7031-0.97266-0.73438 0.17578-1.207 0.88672-1.0859 1.6328 1.4688 7.6836 1.668 15.559 0.59766 23.309-2.3281-3.1758-3.9531-6.8164-4.7617-10.672-0.125-0.87891-0.92578-1.5-1.8086-1.4023-0.88281 0.09375-1.5312 0.875-1.4648 1.7617 0.24609 5.7812 2.5352 11.285 6.457 15.539l0.22266 0.17969c-0.87891 2.6797-2.125 5.2227-3.7031 7.5625-2.8047 3.8359-5.875 7.4766-9.1836 10.887 0.53125-3.293 1.0586-6.5859 1.457-9.9023l-0.003906-0.003906c0.96875-9.3086 1.1445-18.684 0.52734-28.023-0.12109-2.4531-3.8477-2.0039-3.7656 0.41016 0.10547 3.4844 0.003906 6.9688-0.3125 10.438l-0.46875-0.44922v0.003906c-2.207-2.5117-3.7188-5.5586-4.3867-8.8398-0.47266-1.9141-3.5078-1.7109-3.1484 0.34375 0.29297 3.3008 1.0625 6.5352 2.2812 9.6133 0.66797 1.3555 1.4648 2.6406 2.3789 3.8398 0.66016 1.1172 1.4688 2.1367 2.3984 3.0352-0.47266 2.9258-1.0547 5.8242-1.7227 8.6875-2.4336 8.0312-4.3906 16.195-5.8672 24.457-1.293 15.199 3.2969 30.316 12.828 42.23 1.1641 1.5781 2.3828 3.1133 3.6406 4.6172 1.0156 1.957 1.9805 3.9453 2.8633 5.9688v0.003906c2.3633 5.3242 4.0703 10.91 5.0898 16.645 0.53906 3.168 0.88281 6.3203 1.3906 9.4453-2.7227-2.1797-5.4492-4.3906-8.0781-6.6992l-0.64453-4.9297c-0.73828-5.207-1.8906-10.355-2.5312-15.566l0.003906 0.003906c-0.23828-1.5195-1.6289-2.582-3.1562-2.4141s-2.6523 1.5039-2.5547 3.0391c0.49219 4.0391 0.69141 8.1094 0.99609 12.172-3.1875-3.4844-5.8984-7.375-8.0703-11.57 1.8359-3.7344 2.918-7.7969 3.1797-11.949 0.078125-0.66406-0.33203-1.2852-0.97266-1.4688s-1.3203 0.125-1.6016 0.72656c-0.91406 2.2266-1.9805 4.3828-3.1992 6.4531-2.3047-6.5195-2.4102-13.613-0.30078-20.199 1.1406-3.2969-3.7969-5.4883-5.0195-2.168-3.3242 9.9492-2.6484 20.797 1.8867 30.254-2.8359-2.1992-5.418-4.707-7.7031-7.4727-0.99219-1.3047-1.8828-2.6836-2.668-4.1211 1.5508-4.1211 2.3516-8.4805 2.3672-12.883 0.33203-4.6406-0.18359-9.3008-1.5273-13.754-0.28125-0.65625-0.95703-1.0508-1.6641-0.96875-0.70703 0.082032-1.2812 0.61719-1.4062 1.3164-0.34766 4.3672-0.14453 8.7461-0.47266 13.113-0.13672 1.8242-0.36719 3.6367-0.60547 5.4492-0.73437-2.1523-1.3672-4.3438-1.9688-6.5273-0.79297-2.875-5.8008-1.6602-5.1367 1.2773h-0.003906c1.1094 7.2383 3.5117 14.223 7.1016 20.605 4.2773 6.4961 11.457 10.148 16.367 16.066 2.3281 2.8789 4.3906 5.9609 6.1641 9.207l1.8867 3.4453-2.3828 0.22266-0.070312 0.003906c-2.5508-0.046875-5.0195-0.91797-7.0352-2.4844-1.6562-1.6211-3.1562-3.3984-4.4805-5.3008-2.043-2.2383-3.5938-4.8867-4.5469-7.7656-0.47656-1.9961-3.6641-1.7266-3.2461 0.35547h-0.003906c0.86719 5.6016 2.9961 10.934 6.2305 15.594-1.4648-0.17969-2.918-0.43359-4.3555-0.76172-2.8008-0.64453-5.5156-1.6094-8.0898-2.8789 0.375-1.1172 0.58594-2.2852 0.62891-3.4648 1.5312-7.9531 1.0352-16.168-1.4414-23.879-1.0508-3.3008-5.9102-1.2852-4.9648 1.9727 0.6875 2.3828 1.1719 4.8203 1.4492 7.2852-0.96484-0.91406-1.8633-1.8906-2.6953-2.9258-1.1914-1.6836-1.9844-3.6211-2.3164-5.6602-0.47656-3.8359-0.64062-7.707-0.49219-11.57-0.027344-1.5664-2.375-1.4805-2.6484-0.054687v-0.003907c-1.7188 6.9492-1.0664 14.27 1.8477 20.805 1.9062 2.9766 3.3711 6.2109 4.3516 9.6094 0.26172 1.3789 0.35938 2.7812 0.29688 4.1797-6.2109-4.5234-10.379-11.316-11.594-18.902-0.20703-1.4258-1.5039-2.4336-2.9375-2.2773s-2.4844 1.4219-2.375 2.8594c0.25781 2.1797 0.73047 4.332 1.4102 6.4219-0.99219-0.082032-1.957-0.37109-2.8281-0.85156-1.6836-1-3.2148-2.2383-4.543-3.6797-1.0977-1.2188-3.6289-0.16406-2.7383 1.5391 1.5156 2.9727 3.9609 5.3672 6.9609 6.8164 2.5195 1.3672 4.7656 3.125 7.207 4.5508 2.0312 3.0625 4.5 5.8125 7.3242 8.1641-6.6406-1.7539-12.703-5.2305-17.57-10.082-1.9805-1.9922-5.418 1.3594-3.5352 3.4727h-0.003906c1.2188 1.3672 2.5312 2.6562 3.9219 3.8516-1.6562 0.089844-3.3164-0.085938-4.9141-0.52734-1.7695-0.49609-2.6484 2.5273-0.89453 3.1094l-0.003906 0.003906c3.1875 1.1914 6.6602 1.3867 9.9609 0.55859 1.5938 1.043 3.2617 1.9688 4.9922 2.7656l-0.78516 1.1211h0.003907c-0.70703 0.87891-1.4805 1.7031-2.3164 2.4609-0.55078 0.5625-0.58203 1.4531-0.074218 2.0547 0.50781 0.59766 1.3906 0.71484 2.0352 0.26562 1.1797-0.74219 2.25-1.6406 3.1797-2.6758l1.1211-1.4883 0.28125-0.36328h-0.003906c4.9883 1.6992 10.258 2.3984 15.516 2.0625l0.10156-0.011719 1.3438 0.52344c4.2344 1.4883 8.6367 2.4609 13.105 2.9023-0.33203 0.875-0.77344 1.707-1.3164 2.4688-1.1211 1.5273 1.1641 3.332 2.3242 1.8203 1.0391-1.25 2.0156-2.5508 2.9258-3.9023l4.4648 0.34766c3.6133 0.26953 7.2383 0.089843 10.855 0.38281 3.418 4.0234 7.0078 7.8945 10.52 11.832v0.003907c-0.97656 0.78906-2.0117 1.5078-3.0938 2.1523-2.8711 1.4609-5.8398 2.7188-8.8867 3.7734-0.78125 0.34375-1.207 1.1992-1 2.0273 0.20703 0.82813 0.98438 1.3867 1.8359 1.3203 3.4883-0.40625 6.8789-1.4375 10.004-3.043 1.5469-0.71875 3.0547-1.5156 4.5195-2.3906 1.6172 1.8867 3.2031 3.8086 4.7227 5.7812v0.003907c6.3359 8.0898 11.777 16.84 16.23 26.105 3.5352 7.4531 6.3984 15.211 8.5508 23.176l-0.14453 4.293h-0.003906c-1.9219-1.5039-3.6953-3.1914-5.293-5.0391-2.4141-2.8008-7.0117 0.57031-4.6367 3.5039 2.8672 3.5898 5.9375 7.0195 9.1953 10.266-0.47656 3.9258-1.2656 7.8086-2.3555 11.613-1.3477 4.6719-3.1719 9.1953-5.4375 13.496-0.78516-2.0898-1.6484-4.1523-2.6172-6.1602-2.6641-5.5586-6.0742-10.727-10.137-15.363 1.0742-2.7539 1.7695-5.6367 2.0703-8.5742 0.51562-5.707-0.25391-11.453-2.25-16.824-1.1797-3.5508-6.5742-1.3945-5.3984 2.1445 1.6602 5.5898 1.4297 11.574-0.65625 17.023-4.7305-4.0078-9.8242-7.5703-15.211-10.637l-3.4414-1.9961h-0.003906c0.54297-0.92969 1.168-1.8125 1.8672-2.6328 1.8086-2.0586 3.9219-3.8242 5.7578-5.8594l2.1289-2.5977 0.93359-0.76953c3.4414-3.168 8.2344-4.4062 12.781-3.3047 2.2344 0.62109 4.3906 1.4844 6.4297 2.5859 2.3984 0.95703 4.5859 2.3711 6.4414 4.1641 0.55469 0.69141 1.5547 0.81641 2.2578 0.28125 0.70703-0.53125 0.85938-1.5273 0.34766-2.2461-1.4688-2.418-3.082-4.7383-4.8359-6.957-0.6875-0.72656-1.4375-1.3945-2.2383-1.9961-0.28906-0.60938-0.80859-1.0781-1.4492-1.2969l-1.3516-0.46875-2.3281-1.0078c-2.0039-0.70312-4.1016-1.1172-6.2227-1.2227l-1.2695-0.30859 0.85156-1.9258c2.4219-5.1992 3.0312-11.059 1.7344-16.645-0.99219-3.1562-5.3945-1.6055-5.3203 1.3203 0.62891 5.3203-0.78125 10.68-3.9453 15-2.1133 2.6445-4.5625 5-7.2812 7.0195l0.82031-2.6289v-0.003907c1.1133-3.6445 1.4375-7.4883 0.95312-11.27-0.21484-1.793-3.1211-1.9805-3.2656-0.070312-0.25391 3.4922-1.0859 6.9219-2.4648 10.145-1.707 3.1445-4.043 5.9102-6.8594 8.125-2.3945 2.2617-5.1719 4.25-7.6953 6.4453l-0.89453-0.64062c0.19531-1.2461 0.46875-2.4805 0.8125-3.6953l2.0039-4.5352c1.0938-2.7148 2.3828-5.3438 3.8594-7.875 2.5234-4.5977 6.293-8.3906 10.875-10.945 0.80859-0.34766 1.1953-1.2773 0.87109-2.0977-0.32812-0.82031-1.2461-1.2344-2.0742-0.93359-3.2891 1.1641-6.3672 2.8555-9.1094 5.0078-0.015624-2.4258-0.26953-4.8438-0.76172-7.2188 0.49219-2.5742 1.5078-5.0312 2.2383-7.582h0.003906c0.98047-3.5078 1.293-7.1641 0.92578-10.785-0.11328-0.78906-0.77734-1.3828-1.5742-1.3984-0.79688-0.015624-1.4883 0.54688-1.6289 1.3281-0.41406 3.4648-1.2266 6.8672-2.4258 10.141-0.66406-1.7188-1.3984-3.4023-2.1836-5.0391-1.5781-3.3086-6.8594-1.2812-5.3398 2.1211l-0.003907-0.003906c4 7.5508 5.1758 16.281 3.3125 24.617l-0.39062 1.0742c-1.668-0.71484-3.1406-1.8203-4.2969-3.2188-1.7148-2.125-2.7305-4.7227-2.9102-7.4453-0.19922-2.3867-3.8008-1.957-3.6758 0.40234 0.41406 5.9805 3.4414 11.477 8.2773 15.027-1.5234 2.1602-2.9102 4.4141-4.1562 6.7461-2.7773-2.7578-5.3164-5.75-7.582-8.9453-2.6875-3.8125-5.0234-7.8672-6.9648-12.113 1.7188-3 2.9023-6.2773 3.5-9.6836l0.26562-0.24219c1.1758-1.2852 2.4062-2.5625 3.7031-3.7266 1.2695-1.1367 2.6484-2.1133 3.8398-3.3359 1.1406-1.1719-0.47266-3.1562-1.8867-2.5195-1.9258 0.92969-3.6484 2.2305-5.0703 3.832l0.11719-2.2305c-0.046875-2.6055-0.26562-5.2109-0.66406-7.7852-0.12891-0.84766-0.90625-1.4414-1.7539-1.3477-0.85156 0.09375-1.4805 0.83984-1.4258 1.6953 0.050781 4.5664-0.59375 9.1172-1.9141 13.492-0.45312 1.5742-1.0117 3.1172-1.668 4.6133l-0.27734-0.75c-2.6992-7.1953-3.8984-14.867-3.5352-22.543 0.26953-3.4336-5.0391-4.2578-5.3125-0.80859-0.76953 6.8125-0.77344 13.688-0.007812 20.496 0.60156 4.1172 1.5195 8.1836 2.7422 12.164-3.8828-3.9141-7.5156-8.0664-10.879-12.434-1.6953-2.1641-3.375-4.4102-4.918-6.75 1.9062-2.4062 3.332-5.1562 4.2031-8.0977 0.52344-1.6523 0.83984-3.3594 0.94531-5.0859-0.058594-1.9219-0.25-3.8398-0.57422-5.7344-0.14453-0.89844-0.96875-1.5273-1.8711-1.4297-0.90625 0.10156-1.5781 0.89062-1.5234 1.8008-0.09375 2.8633-0.96484 5.6484-2.5117 8.0586-0.71875 1.2305-1.6406 2.332-2.7227 3.2617l-1.3047-3.2812-1.3984-4.5742c-0.14844-5.8242-0.83984-11.625-2.0625-17.32 0.32812-5.9922 1.6758-11.887 3.9844-17.426l1.1133-1.4844c2.2578-0.027344 4.4922-0.45313 6.5977-1.2656 3.1602-1.1406 6.0977-2.8281 8.6758-4.9805 1.4414-1.0547 0.085937-3.6758-1.5859-2.8164h0.003906c-2.6797 1.2188-5.5391 1.9805-8.4688 2.2539l-1.0352 0.085937 1.3047-2.2383c3.3789-2.7461 6.7578-5.4883 10.18-8.1914v-0.003906c5.6836-4.2148 10.957-8.9531 15.758-14.152 2.8594-3.2969 5.2734-6.9609 7.1758-10.891 1.2227 0.035156 2.4414-0.11719 3.6211-0.44531 2.1914-0.5625 4.2656-1.5039 6.1328-2.7773 0.56641-0.44922 0.76953-1.2188 0.50391-1.8906-0.26563-0.67578-0.94141-1.0938-1.6641-1.0312-2.0469 0.27344-4.1133 0.38672-6.1797 0.33594 0.71484-2.0508 1.3164-4.1406 1.8008-6.2539 2.2422-2.6445 4.1211-5.5781 5.5859-8.7227 1.9883-4.1211 3.6289-8.4062 4.8945-12.809 0.72266-2.293-2.6875-3.832-3.4805-1.5h0.003906c-1.3555 3.832-3.1445 7.5-5.3359 10.922l0.13281-4.1445c0.007812-1.1562-0.011719-2.3125-0.054688-3.4648v0.003906c3.1328-3.3438 5.4023-7.4062 6.6016-11.832 1.4844-4.8555 1.8047-9.9961 0.9375-15-0.35156-2.0742-3.5508-1.7578-3.2773 0.35938 0.59375 4.5391 0.17188 9.1562-1.2305 13.516-0.62891 1.957-1.4492 3.8477-2.4492 5.6406l-0.96094 1.5273c-0.49609-5.207-1.3633-10.367-2.3594-15.527-0.46094-2.3789-4.1289-2.0508-3.8008 0.41797 1.2344 8.3633 1.5898 16.828 1.0586 25.266-5.8906-3.8477-10.055-9.8281-11.621-16.688-0.49609-2.3281-4.1602-1.9961-3.7344 0.40625 0.80078 4.4453 2.4023 8.7109 4.7227 12.586-1.625-0.17578-3.2031-0.64453-4.6641-1.3867-1.8125-0.92969-2.9961 1.9258-1.2422 2.8789v0.003906c1.8398 1.0977 3.7773 2.0117 5.793 2.7383 1.2539 0.55469 2.6016 0.86719 3.9688 0.92578 1.7383 1.8984 3.7773 3.4961 6.0312 4.7305-0.50781 3.1602-1.2617 6.2773-2.2617 9.3203-2.082 6.3555-5.4297 12.223-9.8477 17.246-3.5039 3.8281-7.3203 7.3555-11.406 10.551l2.0156-3.9766c1.5156-3.0586 2.8594-6.2031 4.0234-9.4102l0.78516-0.66016c4.0781-4.8633 7.5508-10.203 10.348-15.902 0.40234-1.3438-1.4766-2.875-2.3594-1.3984v-0.003906c-1.6328 2.4219-3.5312 4.6523-5.6602 6.6484 0.96875-4.9922 1.1836-10.105 0.63672-15.164-0.10938-0.76172-0.80469-1.2969-1.5703-1.2148-0.76172 0.085938-1.3242 0.75781-1.2695 1.5234 0.25391 6.2773-0.65234 12.547-2.668 18.496-1.8281 5.0195-4.1562 9.8438-6.957 14.395-0.11328-1.4219-0.30469-2.832-0.57422-4.2266-0.65625-3.0469-1.5078-6.043-2.5547-8.9766 2.2891-2.3555 4.1055-5.125 5.3477-8.1602 1.8555-3.7344 3.1641-7.7188 3.8906-11.824 1.3438-8.0898 0.26953-16.395-3.082-23.875-0.35938-0.80859-1.293-1.1875-2.1133-0.85938-0.82031 0.32422-1.2383 1.2422-0.94531 2.0742 2.5078 7.0352 2.9766 14.637 1.3438 21.926-0.73047 3.5508-1.9531 6.9805-3.6328 10.191-0.65625 1.2578-1.3906 2.4688-2.2031 3.6328l-0.50391-0.4375-0.58984-3.3828v-0.003906c-0.97266-6.6523-0.70703-13.434 0.78516-19.992 0.10547-0.83984-0.41797-1.6289-1.2305-1.8633s-1.6758 0.16016-2.0312 0.92578c-2.0781 5.4805-3.0469 11.32-2.8477 17.18l0.22266 2.6406-1.5352-1.625c-2.9688-3.3594-4.7656-7.5938-5.1172-12.062-0.13281-2.1172-3.2969-1.7188-3.2461 0.35547h-0.003906c0.035156 1.3906 0.15625 2.7773 0.36328 4.1523-2.125 0.28516-4.2812 0.14062-6.3477-0.43359-1.4844-0.375-1.9492 1.8398-0.70312 2.457v0.003906c2.4258 1.1406 5.1016 1.6562 7.7773 1.5078h0.019531c0.65625 2.3789 1.6094 4.668 2.8398 6.8125 1.2656 2.207 2.8984 4.1797 4.8359 5.8281 0.78516 0.70703 1.6211 1.3594 2.4961 1.9531 0.42188 2.4492 0.82422 4.9023 1.0625 7.375h-0.003906c0.94531 5.9023 0.96875 11.914 0.078125 17.828-0.64453 2.9531-1.9414 5.7305-3.793 8.125 0.21484-1.9609 0.30078-3.9375 0.25781-5.9141-0.19531-6.9414-2.043-13.738-5.3906-19.82-0.39453-6.8359-2.1875-13.516-5.2656-19.629-0.29297-0.74219-1.1328-1.1055-1.875-0.8125-0.74219 0.29688-1.1055 1.1367-0.8125 1.8789 1.2188 3.3789 2.0391 6.8867 2.4531 10.457-2.793-3.3633-5.9766-6.3789-9.4883-8.9844-0.80469-0.59766-1.9414-0.44531-2.5586 0.34375-0.62109 0.79297-0.49609 1.9336 0.28125 2.5703 4.2773 4.1875 7.5703 9.2695 9.6484 14.883-7.0391-1.4258-13.465-5.0039-18.387-10.238-1.3242-1.4414-3.7539 0.28125-2.4805 1.8711h0.003907c3.8828 4.875 8.8398 8.7891 14.484 11.441l-1.5352 0.55859c-2.3867 0.70312-4.9688 0.1875-6.8984-1.3867-1.2188-1.0977-3.0547 0.73437-2.043 2.0078v0.003906c4.2578 4.3555 11.156 4.6836 15.805 0.75l2.8594 0.64453c0.82812 3.2461 1.3477 6.5664 1.5508 9.9102-1.6602-0.039063-3.3164-0.17188-4.9609-0.39062-10.078-2.0742-18.781-8.3594-23.918-17.273-1.2305-2.1992-4.9453-0.82031-3.7227 1.4766v0.003906c3.3203 6.3164 8.0352 11.793 13.789 16.016l-1.7266 1.1055c-1.957 0.9375-4.0625 1.5391-6.2227 1.7773-4.9805 0.45703-10-0.0625-14.781-1.5273-1.8867-0.50781-2.7695 2.6211-0.94141 3.2891l-0.003906-0.003906c3.1367 1.2266 6.3477 2.2578 9.6094 3.0859l-0.33594 1.1758c-0.46484 1.2617-1.2383 2.3828-2.2461 3.2695-1.1953 0.92969-0.089844 3.168 1.3594 2.4141h-0.003906c1.7031-0.74219 3.168-1.9414 4.2305-3.4648 0.55469-0.83984 0.98828-1.7578 1.2852-2.7188 1.0703 0.089843 2.1445 0.11719 3.2148 0.070312 4.5234-0.11328 8.8477-1.8867 12.145-4.9805 1.8398 0.99219 3.7461 1.8555 5.7031 2.5859 2.3594 1.0234 4.8242 1.7891 7.3516 2.2891-0.625 4.6523-1.8438 9.207-3.6172 13.551-3.0156-2.3516-4.9805-5.8008-5.4727-9.5898-0.14062-1.9297-2.9492-1.5391-2.9336 0.32031h-0.003906c-0.15625 4.2852 0.95703 8.5195 3.2031 12.172l0.26953 1.2305 1.9375 3.8203-0.375 0.33594h0.003906c-1.543-0.86719-2.9883-1.8906-4.3203-3.0547-3.8555-4.2109-7.0078-9.0117-9.3359-14.227-1.5156-2.918-6.2461-1.1914-4.8516 1.9258h0.003906c2.082 5.0352 4.6992 9.8359 7.8047 14.312 1.5156 2.0742 3.2734 3.9531 5.2422 5.6016 0.64844 0.53516 2 1.2305 3.1836 2.0039v-0.003906c-0.89844 2.9766-1.293 6.0859-1.1641 9.1914l-1.8438-0.63672c-2.1367-1.457-4.4531-2.6328-6.8945-3.4961-2.5586-0.84375-5.0039-1.9961-7.543-2.8984v-0.003906c-1.1133-2.3477-1.9258-4.8281-2.4219-7.3789-0.69922-3.1719-1.9766-6.1875-3.7656-8.8984-1.957-2.8008-5.8555 0.32422-4.1641 3.1445v0.003906c1.5352 3.082 2.5898 6.3867 3.1172 9.7891-1.1445-0.125-2.2812-0.35547-3.3867-0.6875-1.9492-0.64453-3.7383-1.7031-5.2422-3.1016 0.57031-2.4258 0.90234-4.8984 0.99219-7.3867 0.25391-3.457-0.15625-6.9336-1.2188-10.234-0.64453-2.0625-3.5664-0.78516-3.0586 1.2148h-0.003906c0.66797 3.2148 0.69531 6.5312 0.085937 9.7578l-0.39844 1.9297c-1.9727-3.7812-3.3828-7.8281-4.1836-12.02-0.78516-3.5547-6.4375-3.0312-5.7109 0.625h-0.003907c0.88281 7.3164 3.5586 14.301 7.793 20.328-0.625 0.44141-1.3398 0.74219-2.0938 0.88281-1.5703 0.26562-3.1758 0.17188-4.7031-0.27734-3.7773-1.4961-7.1875-3.793-9.9883-6.7344-2.6367-2.3047-5.6875 1.8477-3.293 4.207v0.003907c2.2109 2.2969 4.6641 4.3516 7.3203 6.1211 1.6836 1.8789 3.8984 3.1992 6.3555 3.7852 1.4609 0.33203 2.9648 0.44531 4.4609 0.33594-1.1719 1.293-2.5234 2.4062-4.0195 3.3047-0.63672 0.28906-0.93359 1.0234-0.67578 1.6719 0.25781 0.64844 0.98047 0.98047 1.6406 0.75391 4.1523-1.0352 7.8789-3.3438 10.652-6.6016 2.25-0.070312 4.4922 0.27734 6.6172 1.0195-0.84375 1.1055-1.7617 2.1523-2.7461 3.1367-2.3008 2.1875-5.082 3.8086-8.1172 4.7383-1.668 0.46484-0.95703 3.4023 0.74219 2.9883h-0.003906c2.8164-0.60938 5.5781-1.4531 8.2539-2.5195l0.26172 1.5117c0.125 1.3789 0.12891 2.7109 0.35156 4.0781 0.097656 0.67578 0.62891 1.2148 1.3047 1.3164 0.67969 0.10156 1.3438-0.25391 1.6367-0.875 0.72656-1.457 1.0352-3.0859 0.89062-4.7031-0.003906-1.1562-0.17188-2.3008-0.5-3.4062 1.6797-0.91016 3.1406-2.1719 4.2891-3.6953 2.9922 1.3398 5.8477 2.9648 8.5312 4.8477 6.043 4.1211 10.613 10.066 13.047 16.965 1.2188 4.8125 2.1172 9.707 2.6875 14.641l-1.043-0.55859-0.54688-0.30078-0.003906-0.003906c-2.4414-3.9883-4.0938-8.4141-4.8594-13.027-1.8477-5.4219-5.1289-10.242-9.5039-13.941-1.4805-1.3906-3.3594 1.0781-1.9336 2.4727 3.9648 4.5781 6.5664 10.18 7.5039 16.16l0.87109 3.4023c-4.4219-2.7969-7.4688-7.3164-8.4102-12.465-0.21875-1.4609-1.5508-2.4883-3.0195-2.3281-1.4688 0.16016-2.5469 1.4531-2.4453 2.9258 1.3633 8.0352 6.2852 15.023 13.395 19.012 6.1797 4.1992 12.848 7.6445 19.277 11.457l-0.73047 0.011719c-4.2969 0.035156-8.5938 0.027343-12.891-0.023438-1.7539-0.46094-3.5391-0.80469-5.3398-1.0234-2.9648-0.73437-5.6562-2.3047-7.7578-4.5273-2.0977-2.2227-3.5117-5-4.0781-8.0039-0.14062-0.91406-0.97656-1.5547-1.8945-1.457-0.91797 0.10156-1.5977 0.91016-1.5352 1.832 0.5 5.0273 2.8398 9.6914 6.5703 13.098-2.3984-0.050781-4.793-0.16406-7.1641-0.39062l0.003907-0.003906c-3.2656-0.53125-6.4727-1.3633-9.582-2.4922l-0.94141-0.19922v0.003907c-0.86328-4.2422-1.0391-8.5938-0.51953-12.891l-0.023438-0.80469c2.8438-4.6758 4.0039-10.188 3.2891-15.613-0.14062-1.4297-2.5234-1.5664-2.5859-0.054688h-0.003906c-0.078125 2.6523-0.64062 5.2734-1.6562 7.7266-0.83203-3.9844-2.125-7.8594-3.8594-11.543-1.5586-3.3203-6.7539-1.332-5.3398 2.1211l-0.003906-0.003906c2.8477 7.3242 3.793 15.25 2.7578 23.039-0.1875 1.8047-0.25 3.6211-0.17969 5.4336-2.6289-1.3203-5.0742-2.9727-7.2812-4.918l-0.52344-0.48047c0.61719-0.19141 1.1172-0.64844 1.3633-1.2461 0.94531-2.9961 1.1211-6.1836 0.51172-9.2656-0.35937-3.1641-1.0859-6.2695-2.1562-9.2656l-0.24609-0.65625c-0.14844-3.1289-0.46875-6.2109-0.94141-9.4062-0.45703-4.125-1.9609-8.0664-4.3672-11.449-1.1211-1.4805-3.1797 0.17578-2.2539 1.7031l-0.003907 0.003906c1.9609 3.3789 3.0859 7.1758 3.2773 11.078-1.7148-2.4414-3.6914-4.6836-5.9023-6.6875-1.3633-1.2383-3.5898 0.89453-2.3281 2.2891 3.7734 4.1797 6.6133 9.1094 8.3438 14.465 0.84766 2.6211 1.3906 5.332 1.6172 8.0781 0.19531 2.3125-0.21094 4.7812-0.050781 7.1016-3.6211-4.2148-6.2969-9.1562-7.8555-14.488-0.95312-3.2578-5.6758-1.2578-4.8516 1.9258 1.918 7.1406 5.4805 13.734 10.402 19.254-1.7383 0.43359-3.5312 0.62109-5.3203 0.55859-3.9883-0.10156-7.8555-1.3789-11.113-3.6719-0.55078-0.40234-1.3164-0.29688-1.7383 0.23828-0.41797 0.53516-0.33594 1.3086 0.1875 1.7422 3.3047 3.1602 7.4922 5.2461 12.008 5.9844z"/>
</svg>
